<?xml version="1.0" encoding="UTF-8" standalone="no"?>
<!DOCTYPE svg PUBLIC "-//W3C//DTD SVG 1.1//EN" "http://www.w3.org/Graphics/SVG/1.1/DTD/svg11.dtd">
<!-- Created with Vectornator (http://vectornator.io/) -->
<svg height="100%" stroke-miterlimit="10" style="fill-rule:nonzero;clip-rule:evenodd;stroke-linecap:round;stroke-linejoin:round;" version="1.1" viewBox="0 0 3600 3415.88" width="100%" xml:space="preserve" xmlns="http://www.w3.org/2000/svg" xmlns:vectornator="http://vectornator.io" xmlns:xlink="http://www.w3.org/1999/xlink">
<defs/>
<g id="Moon" vectornator:layerName="Moon">
<path d="M1644.15 1905.38C1644.15 1467.85 1998.84 1113.16 2436.36 1113.16C2873.89 1113.16 3228.58 1467.85 3228.58 1905.38C3228.58 2342.91 2873.89 2697.59 2436.36 2697.59C1998.84 2697.59 1644.15 2342.91 1644.15 1905.38Z" fill="#755686" fill-rule="nonzero" opacity="0.627" stroke="#a500ff" stroke-linecap="butt" stroke-linejoin="round" stroke-width="10" vectornator:layerName="crone"/>
<path d="M358.44 1881.09C358.44 1443.57 713.127 1088.88 1150.65 1088.88C1588.18 1088.88 1942.87 1443.57 1942.87 1881.09C1942.87 2318.62 1588.18 2673.31 1150.65 2673.31C713.127 2673.31 358.44 2318.62 358.44 1881.09Z" fill="#626a9c" fill-rule="nonzero" opacity="1" stroke="#a500ff" stroke-linecap="butt" stroke-linejoin="round" stroke-width="10" vectornator:layerName="maiden"/>
<path d="M794.705 1964.49C794.705 1431.79 1226.54 999.952 1759.24 999.952C2291.94 999.952 2723.78 1431.79 2723.78 1964.49C2723.78 2497.19 2291.94 2929.03 1759.24 2929.03C1226.54 2929.03 794.705 2497.19 794.705 1964.49Z" fill="#8475a0" fill-rule="nonzero" opacity="1" stroke="#ce95ee" stroke-linecap="butt" stroke-linejoin="round" stroke-width="12.1752" vectornator:layerName="mother"/>
</g>
<g id="Color-Palette" vectornator:layerName="Color Palette">
<path d="M2368.24 414.619L2785.76 414.619L2785.76 832.142L2368.24 832.142L2368.24 414.619Z" fill="#e1e3e7" fill-rule="nonzero" opacity="1" stroke="#ffffff" stroke-linecap="butt" stroke-linejoin="round" stroke-width="10" vectornator:layerName="E1E3E7"/>
<path d="M1854.84 416.81L2272.36 416.81L2272.36 834.332L1854.84 834.332L1854.84 416.81Z" fill="#a995a5" fill-rule="nonzero" opacity="1" stroke="#ffffff" stroke-linecap="butt" stroke-linejoin="round" stroke-width="10" vectornator:layerName="A995A5"/>
<path d="M1311.99 408.751L1729.51 408.751L1729.51 826.274L1311.99 826.274L1311.99 408.751Z" fill="#8475a0" fill-rule="nonzero" opacity="1" stroke="#ffffff" stroke-linecap="butt" stroke-linejoin="round" stroke-width="10" vectornator:layerName="8475A0"/>
<path d="M806.169 410.116L1223.69 410.116L1223.69 827.639L806.169 827.639L806.169 410.116Z" fill="#626a9c" fill-rule="nonzero" opacity="1" stroke="#ffffff" stroke-linecap="butt" stroke-linejoin="round" stroke-width="10" vectornator:layerName="626A9C"/>
<path d="M297.415 408.763L714.937 408.763L714.937 826.286L297.415 826.286L297.415 408.763Z" fill="#3825a9" fill-rule="nonzero" opacity="1" stroke="#ffffff" stroke-linecap="butt" stroke-linejoin="round" stroke-width="10" vectornator:layerName="3825A9"/>
<path d="M2851.75 420.036L3269.27 420.036L3269.27 837.558L2851.75 837.558L2851.75 420.036Z" fill="#1e0634" fill-rule="nonzero" opacity="1" stroke="#ffffff" stroke-linecap="butt" stroke-linejoin="round" stroke-width="10" vectornator:layerName="very dark color needed"/>
</g>
<g id="Layer-1" vectornator:layerName="Layer 1" visibility="hidden">
<g opacity="0.161738">
<path d="M2652.19 2752.78C2648.12 2752.45 2644.58 2755.5 2644.25 2759.56C2644.06 2762 2644.1 2764.4 2644.12 2766.84C2644.14 2768.37 2644.3 2770.32 2643.59 2771.75C2642.88 2773.19 2641.25 2774.18 2639.97 2775C2637.89 2776.34 2635.71 2777.51 2633.69 2778.94C2629.97 2781.58 2626.57 2784.66 2623.03 2787.53C2619.52 2790.38 2615.91 2793.03 2612.19 2795.59C2609.67 2797.33 2607.19 2799.12 2604.62 2800.78C2602.07 2802.44 2599.41 2803.97 2596.81 2805.56C2583.53 2813.7 2569.73 2821 2556.38 2829.03C2545.36 2835.66 2534.92 2842.94 2524.69 2850.72C2512.33 2860.12 2500.23 2869.96 2486.97 2878.09C2479.34 2882.77 2471.29 2886.77 2463.25 2890.69C2449.86 2897.2 2436.15 2903.07 2422.16 2908.16C2408.64 2913.06 2394.84 2917.25 2380.81 2920.41C2373.86 2921.97 2366.8 2923.46 2359.72 2924.25C2351.72 2925.14 2343.62 2924.6 2335.59 2924.41C2328.8 2924.24 2322.01 2924.36 2315.22 2924.31C2294.5 2924.18 2273.51 2923.66 2253.25 2918.91C2239.78 2915.74 2227.02 2910.13 2214.19 2905.06C2190.43 2895.68 2167.16 2885.15 2144.12 2874.12C2133.42 2869 2122.74 2863.81 2112.09 2858.56C2099.69 2852.45 2087.35 2846.23 2074.84 2840.34C2050.78 2829.02 2026.28 2818.66 2002.09 2807.62C1997.42 2805.49 1992.7 2803.38 1988.09 2801.09C1983.77 2798.95 1979.56 2796.56 1975.41 2794.09C1959.88 2784.86 1944.83 2774.31 1927.62 2768.38C1917.63 2764.93 1907.19 2762.89 1896.69 2761.81C1883.52 2760.46 1870.25 2760.54 1857.03 2759.97C1853.17 2759.8 1849.92 2762.77 1849.75 2766.62C1849.58 2770.48 1852.58 2773.74 1856.44 2773.91C1870.25 2774.5 1884.13 2774.39 1897.88 2776.03C1906.42 2777.05 1914.92 2778.81 1923.06 2781.62C1939.27 2787.23 1953.62 2797.42 1968.25 2806.12C1972.7 2808.77 1977.23 2811.35 1981.88 2813.66C1988.34 2816.87 1994.95 2819.8 2001.53 2822.78C2023.93 2832.95 2046.59 2842.57 2068.84 2853.06C2081.27 2858.92 2093.53 2865.13 2105.84 2871.22C2117.81 2877.13 2129.81 2882.97 2141.84 2888.75C2164.31 2899.55 2187.08 2909.7 2210.25 2918.88C2223.29 2924.04 2236.27 2929.64 2249.97 2932.88C2272.34 2938.16 2295.55 2938.73 2318.44 2938.78C2324.49 2938.8 2330.54 2938.75 2336.59 2938.94C2344.82 2939.19 2353.11 2939.59 2361.31 2938.69C2368.05 2937.95 2374.75 2936.61 2381.38 2935.19C2395.13 2932.24 2408.68 2928.36 2421.97 2923.75C2438.25 2918.11 2454.16 2911.39 2469.66 2903.88C2478.13 2899.76 2486.62 2895.55 2494.66 2890.62C2510.12 2881.15 2524.04 2869.46 2538.56 2858.66C2542.82 2855.49 2547.14 2852.41 2551.56 2849.47C2558.71 2844.72 2566.09 2840.31 2573.53 2836.03C2584.41 2829.77 2595.39 2823.71 2606.09 2817.16C2608.27 2815.82 2610.51 2814.55 2612.66 2813.16C2614.8 2811.76 2616.89 2810.23 2619 2808.78C2622.1 2806.65 2625.24 2804.56 2628.22 2802.25C2631.4 2799.79 2634.49 2797.23 2637.59 2794.69C2639.12 2793.44 2640.6 2792.11 2642.22 2790.97C2644.52 2789.34 2647.07 2788.08 2649.38 2786.47C2652.76 2784.1 2655.67 2781.11 2657.28 2777.25C2658.48 2774.37 2658.89 2771.25 2658.91 2768.16C2658.92 2765.68 2658.76 2763.22 2658.97 2760.75C2659.3 2756.69 2656.25 2753.11 2652.19 2752.78Z" fill="#a500ff" stroke="none"/>
</g>
<g opacity="0.161738">
<path d="M519.719 2656.94C518.773 2656.78 517.773 2656.8 516.781 2657.03C512.814 2657.97 510.372 2661.94 511.312 2665.91C513.323 2674.38 515.483 2682.82 518.031 2691.16C525.643 2716.05 536.273 2740.25 551.875 2761.22C557.76 2769.13 564.316 2776.66 571.656 2783.25C589.302 2799.1 610.954 2809.39 630.5 2822.56C659.421 2842.05 689.421 2860.08 721.719 2873.44C733.109 2878.15 744.768 2882.38 756.656 2885.66C771.909 2889.86 787.63 2891.18 803.25 2893.31C814.236 2894.81 825.095 2897.38 836.156 2898.31C853.423 2899.77 870.762 2899.07 888.062 2898.94C903.623 2898.82 919.16 2899.43 934.719 2899.03C945.895 2898.75 957.13 2897.97 968.094 2895.69C980.577 2893.09 992.678 2888.91 1004.78 2884.97C1025.56 2878.2 1046.31 2871.14 1066.41 2862.5C1087.49 2853.44 1107.94 2842.94 1129.16 2834.19C1133.33 2832.47 1137.55 2830.81 1141.81 2829.31C1154.47 2824.85 1167.45 2821.44 1180.22 2817.31C1211.84 2807.09 1243.64 2797.16 1276.34 2790.97C1316.44 2783.37 1357.27 2781.08 1398 2780.56C1434.27 2780.1 1470.54 2780.99 1506.81 2781.06C1510.67 2781.07 1513.8 2777.95 1513.81 2774.09C1513.82 2770.23 1510.7 2767.1 1506.84 2767.09C1429.17 2766.92 1350.49 2762.66 1273.72 2777.16C1240.43 2783.44 1208.11 2793.54 1175.91 2803.91C1163.02 2808.06 1149.87 2811.48 1137.09 2815.97C1132.6 2817.55 1128.15 2819.28 1123.75 2821.09C1102.45 2829.85 1081.94 2840.34 1060.78 2849.41C1041.08 2857.85 1020.72 2864.73 1000.34 2871.34C988.74 2875.11 977.154 2879.15 965.188 2881.62C954.196 2883.9 942.885 2884.46 931.688 2884.66C916.709 2884.91 901.729 2884.29 886.75 2884.44C870.294 2884.6 853.797 2885.21 837.375 2883.81C833.077 2883.45 828.815 2882.74 824.562 2882.03C818.122 2880.96 811.688 2879.74 805.219 2878.84C790.254 2876.78 775.175 2875.57 760.562 2871.53C746.514 2867.65 732.815 2862.43 719.5 2856.53C691.067 2843.93 664.463 2827.73 638.719 2810.38C628.976 2803.81 618.819 2797.93 608.812 2791.78C599.289 2785.93 589.834 2779.81 581.5 2772.31C573.077 2764.74 565.8 2755.81 559.469 2746.44C542.39 2721.16 532.664 2691.96 525.688 2662.5C524.983 2659.52 522.555 2657.42 519.719 2656.94Z" fill="#a500ff" stroke="none"/>
</g>
<g opacity="0.161738">
<path d="M1006.47 1570.25C990.354 1570.39 974.094 1570.08 958.094 1572.31C950.205 1573.41 942.391 1575.21 934.656 1577.09C922.275 1580.1 910.067 1583.76 898.062 1588.03C865.855 1599.49 834.896 1615.26 807.781 1636.19C789.422 1650.36 772.791 1666.91 759.594 1686.03C753.983 1694.16 748.812 1702.62 743.844 1711.16C732.454 1730.72 722.746 1751.34 716.438 1773.12C708.694 1799.87 705.066 1827.59 700.781 1855.03C700.092 1859.45 699.473 1863.88 698.719 1868.28C697.881 1873.18 696.909 1878.05 696 1882.94C695.465 1885.81 695.03 1888.71 694.406 1891.56C693.675 1894.91 692.709 1898.24 691.875 1901.56C690.79 1905.88 689.798 1910.23 688.625 1914.53C686.312 1923.01 683.205 1931.33 680 1939.5C674.634 1953.18 668.587 1966.6 662.562 1980C649.817 2008.35 635.078 2035.82 618.406 2062.06C612.943 2070.66 607.249 2079.12 601.375 2087.44C596.943 2093.72 592.402 2099.93 587.562 2105.91C574.669 2121.82 560.001 2136.18 545.156 2150.25C538.761 2156.31 532.331 2162.32 525.844 2168.28C516.501 2176.87 507.134 2185.43 498.281 2194.53C495.3 2197.6 492.339 2200.71 489.531 2203.94C486.921 2206.94 484.485 2210.09 482.031 2213.22C476.949 2219.69 471.517 2226.83 463.719 2230.16C458.32 2232.46 452.348 2232.69 446.562 2232.66C443.376 2232.64 440.187 2232.56 437 2232.53C432.923 2232.5 429.595 2235.77 429.562 2239.84C429.53 2243.92 432.798 2247.25 436.875 2247.28C448.537 2247.37 460.284 2248.24 471.125 2243C479.481 2238.96 485.811 2232.13 491.531 2225C494.881 2220.82 498.036 2216.48 501.625 2212.5C510.796 2202.33 520.82 2192.94 530.875 2183.66C537.774 2177.29 544.668 2170.94 551.5 2164.5C568.111 2148.84 584.58 2132.92 598.969 2115.16C603.075 2110.09 606.965 2104.82 610.781 2099.53C616.587 2091.48 622.191 2083.29 627.594 2074.97C645.983 2046.63 662.085 2016.79 675.906 1985.97C682.016 1972.34 688.122 1958.72 693.562 1944.81C696.95 1936.15 700.244 1927.36 702.688 1918.38C703.884 1913.98 704.896 1909.51 706 1905.09C706.867 1901.62 707.835 1898.15 708.594 1894.66C709.352 1891.17 709.913 1887.64 710.562 1884.12C711.388 1879.66 712.271 1875.19 713.031 1870.72C713.792 1866.24 714.43 1861.74 715.125 1857.25C719.283 1830.41 722.708 1803.28 730.25 1777.12C736.208 1756.46 745.442 1736.91 756.219 1718.34C761.358 1709.49 766.715 1700.71 772.625 1692.34C784.758 1675.17 799.838 1660.25 816.438 1647.41C842.349 1627.36 871.983 1612.26 902.781 1601.28C914.328 1597.17 926.091 1593.65 938 1590.75C945.279 1588.98 952.639 1587.26 960.062 1586.22C976.051 1583.98 992.303 1584.43 1008.41 1584.28C1030.79 1584.08 1053.29 1583.9 1075.56 1586.5C1103.84 1589.8 1131.18 1598.07 1158.94 1604.06C1177.67 1608.1 1196.58 1610.99 1215.78 1611.12C1219.64 1611.15 1222.78 1608.05 1222.81 1604.19C1222.84 1600.33 1219.73 1597.18 1215.88 1597.16C1206.81 1597.09 1197.79 1596.42 1188.81 1595.22C1163.06 1591.77 1138.07 1584.48 1112.75 1578.88C1099.76 1576 1086.67 1573.56 1073.44 1572.19C1051.19 1569.87 1028.8 1570.06 1006.47 1570.25Z" fill="#a500ff" stroke="none"/>
</g>
<g opacity="0.161738">
<path d="M2494.22 1467.06C2479.35 1467.22 2464.47 1468.1 2449.66 1468.28C2443.4 1468.36 2437.13 1468.34 2430.88 1468.44C2415.96 1468.67 2401.05 1469.17 2386.16 1469.94C2344.47 1472.09 2302.87 1476.29 2261.56 1482.34C2240.68 1485.4 2219.87 1489.06 2199.25 1493.59C2194.22 1494.7 2189.23 1495.95 2184.25 1497.28C2178.12 1498.92 2171.98 1500.58 2165.69 1501.5C2162.09 1502.02 2158.43 1502.25 2154.81 1502.53C2149.16 1502.96 2143.53 1503.33 2137.88 1503.66C2118.61 1504.76 2099.32 1505.19 2080.03 1505.25C2076.17 1505.26 2073.05 1508.42 2073.06 1512.28C2073.07 1516.14 2076.2 1519.26 2080.06 1519.25C2099.61 1519.2 2119.14 1518.74 2138.66 1517.62C2144.98 1517.26 2151.31 1516.85 2157.62 1516.34C2160.99 1516.07 2164.34 1515.83 2167.69 1515.34C2178.93 1513.71 2189.74 1510 2200.81 1507.56C2221.6 1502.99 2242.54 1499.26 2263.59 1496.19C2304.47 1490.22 2345.62 1486.11 2386.88 1484C2401.6 1483.25 2416.35 1482.75 2431.09 1482.53C2437.33 1482.44 2443.57 1482.45 2449.81 1482.38C2463.47 1482.22 2477.12 1481.51 2490.78 1481.28C2505.91 1481.03 2521.17 1481.37 2536.09 1484.09C2555.74 1487.68 2574.3 1495.71 2592.66 1503.31C2621.14 1515.11 2649.19 1528.29 2674.88 1545.47C2699.13 1561.69 2720.8 1581.38 2743.22 1599.97C2763.67 1616.92 2784.16 1633.92 2802.22 1653.47C2812.41 1664.49 2821.82 1676.34 2829.56 1689.22C2837.12 1701.78 2842.93 1715.31 2847.84 1729.09C2855.46 1750.47 2860.84 1772.56 2866.66 1794.47C2874.41 1823.68 2882.23 1853.01 2885.78 1883.09C2889.29 1912.83 2888.33 1942.88 2888.06 1972.75C2887.99 1980.72 2888.05 1988.71 2887.88 1996.69C2887.6 2009.29 2886.9 2021.88 2885.44 2034.41C2883.83 2048.21 2881.27 2061.92 2877.66 2075.34C2875.17 2084.56 2872.15 2093.62 2868.81 2102.56C2867.39 2106.38 2869.34 2110.61 2873.16 2112.03C2876.98 2113.46 2881.23 2111.54 2882.66 2107.72C2886.15 2098.34 2889.31 2088.85 2891.91 2079.19C2895.71 2065.07 2898.41 2050.65 2900.09 2036.12C2901.6 2023.14 2902.32 2010.07 2902.59 1997C2902.76 1988.96 2902.71 1980.91 2902.78 1972.88C2903.04 1942.38 2904 1911.7 2900.41 1881.34C2896.72 1850.14 2888.51 1819.8 2880.5 1789.5C2870.79 1752.76 2861.88 1714.57 2842.06 1681.69C2819.3 1643.91 2784.67 1615.57 2751.16 1587.78C2728.78 1569.23 2707.07 1549.69 2682.84 1533.53C2656.35 1515.86 2627.46 1502.28 2598.09 1490.16C2578.79 1482.18 2559.28 1473.88 2538.62 1470.12C2523.93 1467.46 2509.09 1466.91 2494.22 1467.06Z" fill="#a500ff" stroke="none"/>
</g>
<g opacity="0.161738">
<path d="M823.281 1134.91C822.323 1134.88 821.354 1135.06 820.406 1135.44C816.616 1136.94 814.747 1141.24 816.25 1145.03C818.627 1151.02 821.181 1156.93 824.094 1162.69C828.584 1171.56 833.768 1180.04 839.469 1188.19C849.381 1202.35 860.887 1215.23 872.531 1227.97C886.65 1243.41 901.328 1258.72 917.938 1271.53C921.338 1274.15 924.811 1276.68 928.25 1279.25C930.937 1281.26 933.589 1283.32 936.312 1285.28C939.034 1287.24 941.837 1289.12 944.594 1291.03C948.108 1293.47 951.592 1295.9 955.125 1298.31C980.024 1315.29 1005.45 1331.4 1028.91 1350.41C1049.77 1367.32 1070.25 1384.89 1088.88 1404.28C1100.17 1416.04 1110.46 1428.68 1120.59 1441.44C1135.64 1460.37 1150.11 1479.73 1165.09 1498.72C1173.63 1509.54 1182.41 1520.14 1191.28 1530.69C1200.76 1541.96 1209.2 1554.15 1220.06 1564.19C1225.08 1568.82 1230.46 1573.05 1236.09 1576.91C1241.21 1580.41 1246.56 1583.61 1251.88 1586.81C1257.19 1590.01 1262.46 1593.22 1267.81 1596.34C1285.86 1606.86 1304.28 1616.74 1322.78 1626.44C1333.89 1632.26 1345.07 1637.96 1356.12 1643.88C1367.51 1649.97 1378.54 1656.7 1389.78 1663.03C1397.02 1667.11 1404.41 1670.87 1411.69 1674.88C1419.4 1679.11 1427.08 1683.42 1435.12 1687C1439.03 1688.74 1443.06 1690.53 1447.22 1691.59C1454.46 1693.45 1461.97 1692.4 1469.34 1692.75C1473.2 1692.93 1476.48 1689.95 1476.66 1686.09C1476.84 1682.24 1473.86 1678.96 1470 1678.78C1466.69 1678.63 1463.41 1678.7 1460.09 1678.75C1456.97 1678.79 1453.77 1678.81 1450.72 1678.03C1449.11 1677.62 1447.54 1676.98 1446 1676.38C1443.67 1675.47 1441.39 1674.49 1439.12 1673.44C1431.46 1669.89 1424.09 1665.72 1416.69 1661.66C1410.03 1658 1403.24 1654.57 1396.62 1650.84C1384.6 1644.07 1372.81 1636.88 1360.59 1630.44C1331.89 1615.29 1302.94 1600.56 1274.91 1584.19C1269.11 1580.8 1263.37 1577.32 1257.62 1573.84C1247.73 1567.87 1238.2 1561.7 1229.69 1553.81C1218.85 1543.77 1210.36 1531.31 1200.88 1520.03C1191.33 1508.69 1182 1497.18 1172.88 1485.5C1159.12 1467.89 1145.72 1450.02 1131.84 1432.5C1121.45 1419.37 1110.9 1406.36 1099.31 1394.25C1079.65 1373.7 1057.96 1355.12 1035.84 1337.28C1010.25 1316.64 982.262 1299.28 955.281 1280.56C951.821 1278.16 948.322 1275.84 944.906 1273.38C941.872 1271.19 938.9 1268.87 935.906 1266.62C932.905 1264.38 929.874 1262.17 926.906 1259.88C910.609 1247.29 896.258 1232.1 882.406 1216.94C869.981 1203.33 857.783 1189.49 847.688 1174.03C840.594 1163.17 834.778 1151.65 830 1139.59C828.873 1136.75 826.157 1134.97 823.281 1134.91Z" fill="#a500ff" stroke="none"/>
</g>
<g opacity="0.161738">
<path d="M1529.66 1079.28C1525.83 1079.81 1523.16 1083.33 1523.69 1087.16C1525.61 1101.14 1525.06 1115.56 1529.19 1129.19C1530.07 1132.1 1531.22 1134.91 1532.31 1137.75C1533.89 1141.85 1535.54 1145.93 1537.19 1150C1542.12 1162.18 1547.4 1174.22 1552.81 1186.19C1561.79 1206.06 1571.26 1225.7 1580.59 1245.41C1586.09 1257.01 1591.43 1268.69 1596.91 1280.31C1604.36 1296.12 1612.87 1311.49 1618.25 1328.19C1627.83 1357.92 1628.11 1389.51 1628.09 1420.44C1628.08 1438.98 1628.02 1457.55 1626.34 1476.03C1625.48 1485.55 1624.12 1495.01 1622.34 1504.41C1621.59 1508.41 1624.21 1512.27 1628.22 1513.03C1632.22 1513.79 1636.09 1511.16 1636.84 1507.16C1638.93 1496.09 1640.45 1484.92 1641.34 1473.69C1642.75 1455.98 1642.79 1438.19 1642.78 1420.44C1642.77 1387.96 1642.22 1354.9 1632.06 1323.72C1626.43 1306.44 1617.65 1290.54 1609.88 1274.19C1605.06 1264.05 1600.37 1253.84 1595.53 1243.72C1585.23 1222.16 1574.81 1200.67 1564.94 1178.91C1559.59 1167.11 1554.41 1155.22 1549.53 1143.22C1547.91 1139.23 1546.33 1135.24 1544.78 1131.22C1544 1129.2 1543.19 1127.2 1542.56 1125.12C1540.71 1119.02 1540 1112.62 1539.47 1106.28C1538.88 1099.26 1538.49 1092.23 1537.53 1085.25C1537.01 1081.43 1533.48 1078.76 1529.66 1079.28Z" fill="#a500ff" stroke="none"/>
</g>
<g opacity="0.161738">
<path d="M2071.56 1120.59C2067.7 1120.6 2064.58 1123.73 2064.59 1127.59C2064.67 1157.23 2066.45 1186.9 2065.09 1216.53C2064.46 1230.36 2062.89 1244.11 2061.44 1257.88C2058.98 1281.21 2056.09 1304.51 2053.06 1327.78C2050.99 1343.67 2048.77 1359.54 2046.47 1375.41C2045.73 1380.51 2045.01 1385.59 2044.25 1390.69C2043.76 1394.01 2043.4 1397.39 2042.59 1400.66C2041.12 1406.61 2038.7 1412.33 2036.25 1417.94C2032.92 1425.56 2029.29 1433.06 2026.03 1440.72C2018.52 1458.37 2011.99 1476.4 2005.81 1494.56C2004.5 1498.42 2006.58 1502.63 2010.44 1503.94C2014.3 1505.25 2018.5 1503.17 2019.81 1499.31C2026.13 1480.69 2032.78 1462.19 2040.56 1444.12C2044.31 1435.44 2048.55 1426.96 2052.09 1418.19C2053.94 1413.62 2055.64 1408.95 2056.81 1404.16C2057.73 1400.43 2058.17 1396.6 2058.72 1392.81C2059.46 1387.7 2060.18 1382.59 2060.91 1377.47C2063.17 1361.53 2065.36 1345.57 2067.38 1329.59C2070.4 1305.63 2073.28 1281.66 2075.72 1257.62C2077.09 1244.16 2078.56 1230.68 2079.16 1217.16C2080.48 1187.3 2078.68 1157.43 2078.59 1127.56C2078.58 1123.7 2075.42 1120.58 2071.56 1120.59Z" fill="#a500ff" stroke="none"/>
</g>
<g opacity="0.161738">
<path d="M2471.38 1697.19C2468.5 1697.23 2465.78 1698.95 2464.62 1701.78C2457.48 1719.35 2448.36 1735.94 2437.91 1751.75C2435.42 1755.51 2433.08 1759.38 2430.53 1763.09C2428.75 1765.69 2426.68 1768.36 2424.03 1770.12C2421.38 1771.9 2418.08 1772.63 2415.03 1773.41C2411.58 1774.28 2408.14 1775.26 2404.66 1775.97C2384.82 1780.02 2364.42 1777.64 2344.44 1780.31C2322.69 1783.22 2302.38 1791.89 2282.22 1800.09C2277.22 1802.13 2272.21 1804.09 2267.16 1806C2259.33 1808.96 2251.44 1811.76 2243.75 1815.06C2224.35 1823.38 2205.61 1833.43 2188.34 1845.59C2184.42 1848.36 2180.54 1851.21 2176.81 1854.25C2174.49 1856.14 2172.25 1858.15 2169.97 1860.09C2167.68 1862.04 2165.3 1863.93 2163.06 1865.94C2160.28 1868.43 2157.65 1871.08 2154.94 1873.66C2136.45 1891.21 2119.3 1910.2 2098.94 1925.69C2095.86 1928.02 2095.26 1932.4 2097.59 1935.47C2099.93 1938.54 2104.3 1939.15 2107.38 1936.81C2119.36 1927.71 2130.38 1917.49 2141.09 1906.94C2149.45 1898.71 2157.68 1890.37 2166.19 1882.31C2168.27 1880.34 2170.33 1878.29 2172.47 1876.38C2174.61 1874.45 2176.87 1872.64 2179.06 1870.78C2181.27 1868.91 2183.44 1866.98 2185.69 1865.16C2189.17 1862.33 2192.8 1859.7 2196.47 1857.12C2212.21 1846.07 2229.23 1836.94 2246.84 1829.25C2255.16 1825.62 2263.69 1822.58 2272.19 1819.41C2277.36 1817.47 2282.5 1815.47 2287.62 1813.41C2306.65 1805.73 2325.84 1797.41 2346.34 1794.72C2358.35 1793.14 2370.55 1793.56 2382.62 1793.06C2393.32 1792.62 2403.92 1791.51 2414.28 1788.78C2420.4 1787.17 2426.75 1785.94 2432.12 1782.41C2439.96 1777.26 2444.44 1768.56 2449.47 1760.97C2455.9 1751.25 2462 1741.27 2467.41 1730.94C2471.43 1723.25 2475.04 1715.38 2478.31 1707.34C2479.85 1703.57 2478.03 1699.26 2474.25 1697.72C2473.31 1697.33 2472.33 1697.17 2471.38 1697.19Z" fill="#a500ff" stroke="none"/>
</g>
<g opacity="0.161738">
<path d="M2672.12 1485.16C2663.77 1485.19 2655.42 1485.29 2647.06 1485.31C2630.89 1485.35 2614.7 1485.53 2598.53 1485.94C2587.76 1486.21 2577.02 1486.65 2566.25 1487.03C2545.97 1487.76 2525.56 1487.97 2505.5 1491.31C2490.2 1493.86 2475.08 1497.6 2460.19 1501.91C2425.88 1511.84 2392.77 1525.51 2360.47 1540.66C2355.11 1543.17 2349.73 1545.67 2344.47 1548.38C2337.64 1551.89 2330.94 1555.69 2324.34 1559.62C2305.93 1570.62 2288.4 1582.98 2270 1594C2257.09 1601.74 2243.66 1608.71 2229.84 1614.69C2218.05 1619.79 2205.96 1624.21 2193.56 1627.62C2189.91 1628.63 2186.21 1629.58 2182.5 1630.38C2180.8 1630.74 2179.12 1631.21 2177.38 1631.31C2174.65 1631.47 2171.89 1631.08 2169.19 1630.75C2166.95 1630.48 2164.72 1630.26 2162.47 1630.12C2158.62 1629.89 2155.29 1632.8 2155.06 1636.66C2154.83 1640.51 2157.77 1643.83 2161.62 1644.06C2167.16 1644.39 2172.66 1645.62 2178.22 1645.28C2180.69 1645.13 2183.06 1644.58 2185.47 1644.06C2188.34 1643.44 2191.18 1642.73 2194.03 1642C2204.17 1639.39 2214.11 1635.99 2223.88 1632.25C2242.37 1625.16 2260.2 1616.19 2277.19 1606.03C2295.59 1595.03 2313.14 1582.69 2331.56 1571.72C2340.98 1566.11 2350.62 1560.97 2360.53 1556.28C2390.15 1542.26 2420.43 1529.41 2451.69 1519.5C2470.06 1513.67 2488.81 1508.73 2507.84 1505.59C2527.29 1502.39 2547.1 1502.3 2566.75 1501.62C2577.47 1501.26 2588.18 1500.85 2598.91 1500.59C2614.41 1500.22 2629.9 1500.03 2645.41 1500C2667.84 1499.95 2690.34 1499.35 2712.75 1500.66C2734 1501.89 2755.02 1504.96 2774.88 1512.94C2778.66 1514.46 2782.98 1512.63 2784.5 1508.84C2786.02 1505.06 2784.16 1500.77 2780.38 1499.25C2774.48 1496.89 2768.5 1494.85 2762.38 1493.19C2741.17 1487.44 2719.08 1485.81 2697.19 1485.34C2688.84 1485.16 2680.48 1485.12 2672.12 1485.16Z" fill="#a500ff" stroke="none"/>
</g>
<g opacity="0.161738">
<path d="M1621.84 1213.44C1610.96 1213.44 1600.06 1213.39 1589.19 1213.72C1573.09 1214.2 1557.04 1215.28 1541 1216.75C1487.87 1221.61 1435.27 1230.86 1382.59 1239.06C1348.86 1244.32 1314.98 1248.96 1281.72 1256.78C1250.65 1264.09 1220.46 1274.69 1189.31 1281.69C1176.3 1284.61 1163.15 1287.05 1150.06 1289.59C1113.55 1296.69 1076.71 1303.67 1041.59 1316.22C1015.43 1325.57 990.584 1338.19 965.406 1349.84C942.72 1360.35 919.86 1370.42 897.281 1381.16C886.345 1386.36 875.411 1391.62 864.719 1397.31C842.799 1408.97 822.486 1423.34 801.062 1435.84C768.604 1454.79 734.466 1470.81 702.688 1490.94C686.031 1501.49 670.193 1513.24 655.188 1526.03C638.535 1540.22 622.951 1555.63 608.75 1572.28C606.354 1575.09 603.653 1577.65 601.344 1580.53C599.799 1582.46 598.431 1584.54 597.438 1586.81C596.053 1589.98 595.257 1593.48 594.531 1596.84C593.087 1603.54 592.377 1610.34 591.469 1617.12C590.564 1623.87 589.176 1630.55 587.812 1637.22C586.034 1645.92 584.151 1654.58 582.25 1663.25C577.741 1683.82 573.055 1704.35 568.219 1724.84C564.921 1738.82 561.6 1752.82 557.969 1766.72C552.653 1787.06 545.698 1806.97 541.469 1827.59C537.926 1844.87 536.778 1862.48 534.5 1879.94C532.629 1894.28 530.179 1908.58 527.969 1922.88C523.491 1951.83 519.176 1980.83 516.375 2010C513.807 2036.75 512.766 2063.6 512.375 2090.47C512.143 2106.41 512.231 2122.34 512.125 2138.28C511.998 2157.49 510.8 2176.69 511.281 2195.91C511.63 2209.82 513.177 2223.61 515.375 2237.34C516.67 2245.43 518.165 2253.47 519.781 2261.5C521.908 2272.06 524.341 2282.52 527.75 2292.75C535.805 2316.92 547.863 2339.49 559.406 2362.12C566.343 2375.72 573.072 2389.42 580.406 2402.81C585.761 2412.59 591.499 2422.15 597.562 2431.5C620.126 2466.31 646.375 2498.45 671.531 2531.38C686.447 2550.89 700.762 2570.86 716.094 2590.06C733.457 2611.81 752.415 2632.61 774.719 2649.41C806.654 2673.45 844.248 2687.87 880.5 2703.94C884.227 2705.59 888.598 2703.91 890.25 2700.19C891.902 2696.46 890.196 2692.09 886.469 2690.44C851.275 2674.84 814.6 2660.96 783.594 2637.62C762.281 2621.58 744.215 2601.61 727.625 2580.84C712.011 2561.3 697.454 2540.96 682.219 2521.12C656.45 2487.57 629.619 2454.69 606.938 2418.91C594.011 2398.51 583.458 2376.91 572.5 2355.44C561.292 2333.47 549.51 2311.59 541.688 2288.12C538.468 2278.47 536.196 2268.6 534.188 2258.62C532.609 2250.79 531.14 2242.93 529.875 2235.03C527.943 2222.97 526.5 2210.84 526.062 2198.62C525.344 2178.54 526.685 2158.46 526.812 2138.38C526.914 2122.47 526.806 2106.59 527.031 2090.69C527.406 2064.22 528.417 2037.74 530.938 2011.38C533.701 1982.48 537.982 1953.77 542.406 1925.09C544.629 1910.69 547.088 1896.3 548.969 1881.84C551.195 1864.74 552.285 1847.46 555.75 1830.53C559.919 1810.17 566.789 1790.46 572.031 1770.38C575.687 1756.37 579.026 1742.28 582.344 1728.19C586.981 1708.49 591.473 1688.76 595.812 1669C597.925 1659.38 600.031 1649.74 602 1640.09C603.533 1632.58 605.05 1625.11 606.031 1617.5C606.849 1611.16 607.505 1604.77 608.969 1598.53C609.433 1596.55 609.882 1594.47 610.688 1592.59C611.157 1591.5 611.885 1590.51 612.625 1589.59C614.849 1586.83 617.449 1584.36 619.75 1581.66C633.45 1565.58 648.466 1550.74 664.531 1537.03C679.014 1524.68 694.327 1513.29 710.406 1503.09C742.025 1483.04 776.015 1467.12 808.312 1448.25C829.566 1435.83 849.692 1421.52 871.438 1409.94C881.938 1404.35 892.666 1399.14 903.406 1394.03C926.288 1383.14 949.478 1372.94 972.469 1362.28C996.899 1350.96 1020.98 1338.68 1046.38 1329.59C1058.31 1325.32 1070.51 1321.77 1082.78 1318.59C1106.37 1312.49 1130.28 1307.87 1154.19 1303.22C1167.58 1300.61 1181.01 1298.09 1194.31 1295.03C1224.83 1288.01 1254.47 1277.67 1284.94 1270.5C1317.85 1262.75 1351.37 1258.17 1384.75 1252.97C1437.13 1244.8 1489.45 1235.56 1542.28 1230.72C1558.03 1229.27 1573.82 1228.23 1589.62 1227.75C1600.36 1227.43 1611.1 1227.47 1621.84 1227.47C1648.26 1227.46 1674.78 1227.71 1700.97 1231.56C1711.36 1233.09 1721.58 1235.44 1731.66 1238.38C1747.36 1242.94 1762.67 1248.71 1778.25 1253.66C1790.64 1257.59 1803.23 1260.83 1815.75 1264.31C1825.85 1267.12 1835.92 1270.13 1845.66 1274.03C1856.26 1278.29 1866.43 1283.59 1876.47 1289.03C1885.5 1293.93 1894.46 1298.92 1903.56 1303.69C1914.19 1309.25 1924.89 1314.75 1935.88 1319.56C1946.17 1324.07 1956.94 1327.6 1966.78 1333.09C1972.6 1336.34 1977.78 1340.55 1983.06 1344.59C1990.84 1350.55 1998.51 1356.64 2006.06 1362.88C2012.4 1368.1 2018.64 1373.44 2024.75 1378.94C2026.66 1380.66 2028.55 1382.38 2030.44 1384.12C2031.16 1384.79 2031.91 1385.46 2032.5 1386.25C2033.79 1387.99 2034.64 1390.01 2035.53 1391.97C2036.35 1393.76 2037.18 1395.52 2038.12 1397.25C2039.98 1400.64 2044.24 1401.88 2047.62 1400.03C2051.01 1398.18 2052.26 1393.95 2050.41 1390.56C2048.1 1386.35 2046.58 1381.68 2043.66 1377.81C2042.23 1375.93 2040.5 1374.4 2038.78 1372.81C2037.23 1371.38 2035.69 1369.97 2034.12 1368.56C2027.87 1362.93 2021.46 1357.42 2014.97 1352.06C2007.28 1345.72 1999.48 1339.56 1991.56 1333.5C1985.74 1329.04 1980.01 1324.46 1973.59 1320.88C1963.35 1315.16 1952.21 1311.45 1941.5 1306.75C1931.31 1302.28 1921.35 1297.22 1911.5 1292.06C1903.46 1287.85 1895.52 1283.52 1887.56 1279.16C1875.61 1272.6 1863.54 1266.11 1850.88 1261.03C1828.2 1251.93 1804.02 1247.25 1780.81 1239.78C1765.7 1234.91 1750.82 1229.37 1735.56 1224.94C1724.87 1221.83 1714.02 1219.34 1703 1217.72C1676.13 1213.77 1648.95 1213.43 1621.84 1213.44Z" fill="#ff0099" stroke="none"/>
</g>
<g opacity="0.161738">
<path d="M519.188 1968.69C515.345 1968.32 511.933 1971.13 511.562 1974.97C510.06 1990.53 509.355 2006.15 509.188 2021.78C508.955 2043.43 509.628 2065.07 509.594 2086.72C509.56 2107.8 508.554 2128.9 509.594 2149.97C510.168 2161.61 511.648 2173.16 513.719 2184.62C525.047 2247.36 553.093 2305.19 578.25 2363.22C586.525 2382.31 594.886 2401.32 603.781 2420.12C618.758 2451.79 634.735 2483 651.094 2513.97C656.363 2523.95 661.697 2533.9 666.969 2543.88C672.076 2553.54 677.114 2563.23 682.594 2572.69C687.504 2581.16 692.719 2589.46 698.125 2597.62C725.402 2638.83 757.868 2676.2 789.812 2713.78C805.65 2732.41 821.296 2751.23 837.344 2769.69C863.852 2800.17 891.873 2829.72 924.281 2854.03C932.613 2860.28 941.186 2866.18 950.062 2871.62C954.604 2874.41 959.258 2877 963.875 2879.66C968.03 2882.05 972.002 2884.79 976.312 2886.91C979.164 2888.31 982.128 2889.42 985.156 2890.38C1004.84 2896.57 1025.88 2894.66 1046.19 2894.5C1050.26 2894.47 1053.56 2891.14 1053.53 2887.06C1053.5 2882.99 1050.17 2879.72 1046.09 2879.75C1035.89 2879.83 1025.67 2880.32 1015.47 2880.03C1006.76 2879.78 997.943 2878.94 989.594 2876.31C987.277 2875.58 984.994 2874.73 982.812 2873.66C978.316 2871.45 974.176 2868.52 969.812 2866.06C955.693 2858.13 942.269 2849.36 929.438 2839.47C904.353 2820.14 882.003 2797.59 860.844 2774.09C839.561 2750.46 819.368 2725.84 798.719 2701.66C767.818 2665.47 736.578 2629.34 710.219 2589.62C704.08 2580.38 698.213 2570.95 692.75 2561.28C687.774 2552.48 683.119 2543.49 678.375 2534.56C673.236 2524.89 668.065 2515.24 662.938 2505.56C645.753 2473.12 629.02 2440.4 613.438 2407.16C605.747 2390.75 598.476 2374.18 591.25 2357.56C566.465 2300.58 538.696 2243.75 527.531 2182.12C525.562 2171.26 524.144 2160.32 523.594 2149.28C522.555 2128.45 523.564 2107.59 523.594 2086.75C523.629 2062.08 522.775 2037.42 523.344 2012.75C523.624 2000.58 524.301 1988.43 525.469 1976.31C525.839 1972.47 523.03 1969.06 519.188 1968.69Z" fill="#ff0099" stroke="none"/>
</g>
<g opacity="0.161738">
<path d="M2800.12 2549.34C2796.05 2549.34 2792.75 2552.67 2792.75 2556.75C2792.75 2591.95 2792.75 2627.12 2792.75 2662.31C2792.75 2691.08 2793.21 2719.96 2790.81 2748.66C2790.19 2756.15 2789.36 2763.62 2788.28 2771.06C2787.17 2778.73 2785.76 2786.34 2784.41 2793.97C2778.68 2826.22 2771.64 2858.96 2755.03 2887.59C2751.6 2893.51 2747.77 2899.19 2743.5 2904.53C2732.84 2917.87 2719.67 2928.99 2705.66 2938.66C2686.73 2951.71 2666.22 2962.25 2645.75 2972.62C2631.84 2979.67 2618.01 2986.83 2604.25 2994.16C2556.63 3019.52 2509.17 3045.26 2460.38 3068.34C2418.32 3088.24 2375.44 3106.36 2332.5 3124.25C2302.55 3136.73 2272.65 3149.33 2242.5 3161.31C2199.43 3178.43 2155.79 3194.26 2111.28 3207.25C2087.75 3214.12 2063.94 3219.93 2040.12 3225.75C2026.91 3228.98 2013.71 3232.26 2000.53 3235.62C1935.61 3252.18 1870.4 3270 1803.31 3274.91C1769.03 3277.41 1734.57 3277.81 1700.22 3276.75C1633.31 3274.68 1566.61 3266.55 1500.97 3253.5C1465.38 3246.42 1430.37 3236.8 1395.25 3227.78C1362.69 3219.43 1329.97 3211.87 1297.41 3203.53C1247.18 3190.67 1197.2 3176.08 1149.62 3155.25C1108.74 3137.35 1069.53 3115.5 1032.09 3091.25C1003.05 3072.44 975.054 3052.03 948.062 3030.38C934.199 3019.25 920.574 3007.83 907.281 2996.03C881.527 2973.17 857.628 2948.32 833.438 2923.84C811.617 2901.77 788.546 2880.95 767.094 2858.5C760.959 2852.08 754.969 2845.52 749.188 2838.78C743.951 2832.68 738.93 2826.4 733.906 2820.12C726.365 2810.7 718.901 2801.22 711.5 2791.69C702.709 2780.36 693.986 2768.96 685.375 2757.5C679.461 2749.63 673.412 2741.86 668.188 2733.5C658.74 2718.39 651.47 2702.03 644.25 2685.78C642.683 2682.25 638.559 2680.68 635.031 2682.25C631.504 2683.82 629.902 2687.94 631.469 2691.47C638.955 2708.33 646.516 2725.23 656.312 2740.91C661.749 2749.6 668.034 2757.71 674.188 2765.91C683.069 2777.73 692.089 2789.47 701.156 2801.16C708.367 2810.45 715.652 2819.66 723 2828.84C728.123 2835.25 733.223 2841.68 738.562 2847.91C744.507 2854.84 750.662 2861.56 756.969 2868.16C778.474 2890.66 801.596 2911.55 823.469 2933.69C847.872 2958.38 871.991 2983.43 897.969 3006.5C911.433 3018.46 925.238 3030.04 939.281 3041.31C966.637 3063.27 995.032 3083.95 1024.47 3103.03C1062.54 3127.71 1102.39 3149.94 1143.97 3168.16C1192.24 3189.3 1242.91 3204.14 1293.88 3217.22C1326.83 3225.67 1359.99 3233.34 1392.94 3241.81C1427.91 3250.81 1462.75 3260.37 1498.19 3267.44C1564.59 3280.68 1632.09 3288.93 1699.78 3291.06C1734.63 3292.16 1769.6 3291.77 1804.38 3289.25C1872.33 3284.32 1938.33 3266.4 2004.09 3249.66C2014.87 3246.91 2025.64 3244.21 2036.44 3241.56C2062.82 3235.1 2089.26 3228.82 2115.34 3221.22C2160.94 3207.93 2205.59 3191.67 2249.72 3174.16C2266.63 3167.44 2283.45 3160.45 2300.25 3153.47C2313.84 3147.82 2327.44 3142.19 2341.03 3136.53C2385.81 3117.89 2430.5 3098.98 2474.25 3078C2521.13 3055.52 2566.87 3030.74 2612.75 3006.31C2624.38 3000.12 2636.02 2994.01 2647.78 2988.06C2672.5 2975.56 2697.42 2963.02 2719.84 2946.62C2732.83 2937.13 2744.94 2926.3 2755 2913.72C2759.16 2908.52 2762.95 2903.02 2766.38 2897.31C2784.41 2867.27 2792.28 2833.23 2798.47 2799.12C2800.04 2790.5 2801.62 2781.84 2802.88 2773.16C2803.99 2765.42 2804.85 2757.66 2805.5 2749.88C2807.99 2720.18 2807.5 2690.31 2807.5 2660.53C2807.5 2625.93 2807.53 2591.35 2807.53 2556.75C2807.53 2552.67 2804.2 2549.34 2800.12 2549.34Z" fill="#ff0099" stroke="none"/>
</g>
<g opacity="0.161738">
<path d="M2951 1989.84C2948.12 1989.85 2945.37 1991.55 2944.19 1994.38C2928.01 2033.02 2912.18 2071.83 2896 2110.47C2886.1 2134.12 2876.14 2157.77 2865.69 2181.19C2850.15 2216.01 2833.4 2250.27 2817.78 2285.06C2806.09 2311.1 2795.22 2337.5 2784.41 2363.91C2773.29 2391.04 2762.4 2418.29 2751.38 2445.47C2744.74 2461.82 2737.83 2478.07 2731.47 2494.53C2722.53 2517.67 2714.5 2541.21 2703.94 2563.69C2697.38 2577.64 2689.61 2590.98 2681.03 2603.78C2664.81 2628 2645.88 2650.18 2627.38 2672.66C2607.13 2697.25 2586.97 2722.06 2564.28 2744.47C2534.87 2773.52 2501.91 2799.04 2467.5 2821.88C2453.12 2831.42 2438.41 2840.38 2423.28 2848.69C2403.37 2859.63 2382.84 2869.47 2362.34 2879.25C2318.91 2899.96 2274.67 2919.01 2229.84 2936.5C2199.04 2948.52 2167.87 2959.62 2136.44 2969.88C2124.63 2973.73 2112.77 2977.42 2100.91 2981.09C2065.02 2992.19 2028.93 3002.96 1991.78 3008.94C1969.45 3012.53 1946.98 3015.28 1924.47 3017.5C1917.73 3018.17 1911 3018.78 1904.25 3019.38C1900.13 3019.74 1896 3020.14 1891.88 3020.38C1882.85 3020.89 1873.81 3020.51 1864.78 3020.28C1856.81 3020.08 1848.85 3020.13 1840.88 3020.12C1804.63 3020.13 1768.37 3020.12 1732.12 3020.12C1728.27 3020.12 1725.12 3023.27 1725.12 3027.12C1725.12 3030.98 1728.27 3034.12 1732.12 3034.12C1769.64 3034.13 1807.17 3034.12 1844.69 3034.12C1851.27 3034.13 1857.86 3034.12 1864.44 3034.28C1872.65 3034.49 1880.85 3034.78 1889.06 3034.5C1893.86 3034.34 1898.63 3033.9 1903.41 3033.5C1910.89 3032.88 1918.37 3032.18 1925.84 3031.44C1948.63 3029.19 1971.39 3026.38 1994 3022.75C2031.8 3016.68 2068.55 3005.81 2105.06 2994.53C2120.86 2989.65 2136.63 2984.67 2152.31 2979.44C2180.57 2970.01 2208.62 2959.91 2236.38 2949.09C2281.53 2931.49 2326.05 2912.26 2369.81 2891.44C2392.4 2880.69 2414.97 2869.8 2436.78 2857.53C2449.96 2850.12 2462.81 2842.16 2475.41 2833.81C2510.61 2810.49 2544.31 2784.4 2574.41 2754.72C2597.47 2731.98 2617.98 2706.83 2638.56 2681.88C2657.39 2659.05 2676.62 2636.49 2693.12 2611.88C2702.87 2597.35 2711.54 2582.17 2718.81 2566.25C2728.99 2543.98 2736.88 2520.78 2745.81 2498C2752.46 2481.03 2759.55 2464.23 2766.41 2447.34C2776.95 2421.4 2787.38 2395.42 2798 2369.5C2808.76 2343.24 2819.59 2316.98 2831.22 2291.09C2846.84 2256.3 2863.61 2222.02 2879.16 2187.19C2889.66 2163.67 2899.64 2139.91 2909.59 2116.16C2925.78 2077.52 2941.63 2038.74 2957.81 2000.09C2959.39 1996.33 2957.64 1992.01 2953.88 1990.44C2952.93 1990.04 2951.96 1989.84 2951 1989.84Z" fill="#ff0099" stroke="none"/>
</g>
<g opacity="0.161738">
<path d="M1850.19 1179.38C1820.95 1179.12 1791.67 1179.95 1762.56 1180.81C1758.49 1180.93 1755.29 1184.33 1755.41 1188.41C1755.53 1192.48 1758.93 1195.68 1763 1195.56C1839.27 1193.29 1916.87 1191.02 1991.59 1209.12C2040.82 1221.05 2087.8 1240.8 2133.12 1263.16C2149.26 1271.12 2165.18 1279.51 2181.09 1287.91C2221.87 1309.43 2262.91 1330.52 2302.75 1353.75C2333.85 1371.88 2364.19 1391.25 2395.22 1409.5C2450.14 1441.81 2507.85 1469.04 2563.72 1499.59C2581.23 1509.17 2598.51 1519.1 2615.5 1529.56C2625.94 1535.99 2636.44 1542.49 2646.28 1549.81C2667.52 1565.61 2685.98 1584.77 2703.72 1604.31C2717.01 1618.95 2730.15 1633.75 2743 1648.78C2774.32 1685.41 2803.86 1723.65 2830.25 1764C2859.8 1809.2 2885.4 1857.13 2904.97 1907.5C2913.81 1930.26 2919.62 1954.07 2923.06 1978.22C2927.66 2010.45 2928.3 2043.09 2928.41 2075.59C2928.59 2130.45 2927.17 2185.32 2929.28 2240.16C2929.43 2244.01 2932.67 2247.02 2936.53 2246.88C2940.39 2246.73 2943.37 2243.48 2943.22 2239.62C2941.12 2184.95 2942.58 2130.26 2942.41 2075.56C2942.3 2042.41 2941.62 2009.12 2936.94 1976.25C2933.35 1951.04 2927.28 1926.2 2918.06 1902.44C2880.36 1805.28 2821.19 1718.47 2753.81 1639.56C2740.88 1624.41 2727.66 1609.51 2714.28 1594.75C2695.93 1574.51 2676.78 1554.71 2654.81 1538.34C2644.24 1530.47 2632.99 1523.47 2621.78 1516.56C2605.01 1506.22 2587.91 1496.44 2570.62 1486.97C2514.91 1456.44 2457.36 1429.27 2402.59 1397C2371.56 1378.72 2341.23 1359.28 2310.12 1341.12C2270.12 1317.77 2228.89 1296.58 2187.94 1274.94C2171.91 1266.47 2155.88 1258.02 2139.62 1250C2093.34 1227.16 2045.34 1207.01 1995.06 1194.81C1947.54 1183.29 1898.92 1179.81 1850.19 1179.38Z" fill="#ff0099" stroke="none"/>
</g>
</g>
<g id="World-Tree" vectornator:layerName="World Tree">
<g opacity="1" vectornator:layerName="Tree">
<path d="M1783.9 1004.48C1843.3 1008.69 1872.38 1017.87 1909.24 1058.12C1946.1 1098.36 1919.52 1220.82 1919.52 1220.82L1995.74 1194.75C1995.74 1194.75 2001.52 1148.4 2021.92 1121.17C2042.31 1093.94 2077.32 1085.84 2077.32 1085.84C2077.32 1085.84 2089.61 1109.33 2074.31 1135.93C2059.01 1162.52 2016.13 1192.21 2016.13 1192.21C2016.13 1192.21 2047.8 1182.7 2088.57 1191.48C2129.34 1200.27 2147.52 1220.38 2179.22 1227.35C2210.91 1234.32 2204.59 1239.54 2215.34 1219.35C2226.1 1199.16 2201.16 1169.97 2222.24 1146.58C2243.32 1123.18 2299.66 1125.76 2299.66 1125.76C2299.66 1125.76 2318.28 1159.24 2302.19 1184.11C2286.1 1208.98 2238.65 1210.77 2235.3 1225.24C2231.95 1239.7 2259.68 1230.46 2288.77 1241.97C2317.87 1253.48 2327.38 1258.07 2351.68 1271.28C2375.98 1284.48 2361.87 1277.59 2385.95 1294.8C2410.04 1312.01 2448.03 1340.11 2448.03 1340.11C2448.03 1340.11 2466.46 1336.48 2495.21 1341.96C2523.97 1347.43 2563.05 1361.99 2563.05 1361.99C2563.05 1361.99 2528.42 1384.42 2502.7 1384.7C2476.97 1384.98 2460.15 1363.11 2460.15 1363.11C2460.15 1363.11 2580.65 1462.25 2607.71 1544.94C2618.97 1579.37 2640.6 1623.72 2639.03 1666.92C2636.83 1727.46 2608.04 1783.12 2608.04 1783.12C2608.04 1783.12 2636.57 1760.88 2659.39 1776.91C2682.22 1792.94 2699.33 1847.23 2699.33 1847.23C2699.33 1847.23 2665.89 1859.29 2635.84 1849.7C2605.79 1840.11 2598.14 1805.85 2598.14 1805.85C2598.14 1805.85 2540.89 1856.21 2507.47 1870.73C2474.04 1885.25 2447.11 1891.16 2418.23 1880.51C2389.34 1869.86 2376.96 1838.35 2367.63 1837.3C2358.29 1836.24 2346.34 1833.81 2345.1 1846.96C2343.86 1860.12 2334.87 1883.75 2356.99 1891.85C2363.79 1894.34 2385.71 1926.98 2421.2 1936.94C2456.69 1946.9 2478.9 1913.8 2533.31 1921.6C2582.61 1928.66 2676.72 1930.59 2676.72 1930.59C2676.72 1930.59 2624.2 1927.2 2605.93 1913.97C2583.94 1898.05 2560.65 1864.11 2560.65 1864.11C2560.65 1864.11 2613.51 1859.63 2643.3 1875.69C2673.08 1891.75 2690.74 1915.34 2690.74 1915.34C2690.74 1915.34 2712.24 1946.57 2714.69 1986.44C2717.79 2036.79 2700.98 2100.93 2688.71 2133.38C2674.84 2170.07 2658.14 2254.12 2633.7 2268.42C2609.26 2282.71 2519.97 2305.51 2487.95 2324.25C2455.93 2342.99 2443.66 2364.66 2441.88 2374.4C2440.97 2379.36 2475.84 2426.5 2500.32 2425.4C2523.9 2424.35 2537.11 2375.13 2537.11 2375.13C2537.11 2375.13 2554.16 2336.29 2577.36 2318.9C2600.55 2301.52 2660.05 2288.92 2660.05 2288.92C2660.05 2288.92 2655.18 2342.97 2618.83 2367.48C2582.47 2392 2555.2 2389.92 2555.2 2389.92C2555.2 2389.92 2589.77 2394.06 2614.45 2403C2630.98 2408.98 2637.32 2427.63 2637.32 2427.63C2637.32 2427.63 2615.59 2436.49 2589.45 2447.75C2551.01 2464.3 2549.91 2406.58 2549.91 2406.58C2549.91 2406.58 2542.73 2463.97 2513.43 2505.57C2484.14 2547.17 2451.23 2552.43 2432.74 2572.98C2414.25 2593.53 2403.33 2637.4 2391.98 2662.97C2381.59 2686.38 2361.59 2701.25 2334.82 2715.77C2317.76 2725.03 2270.33 2698.37 2241.79 2719.9C2213.25 2741.43 2173.52 2771.54 2134.07 2797.5C2094.61 2823.45 2107.48 2808.56 2083.96 2823.73C2060.43 2838.89 2060.33 2844.88 2039.96 2858.16C2019.59 2871.44 2023.58 2870.59 2002.46 2876.84C1981.35 2883.09 1905.45 2905.04 1874.59 2903.65C1856.11 2902.81 1827.01 2897.37 1798.92 2882.86C1780.13 2873.15 1754.21 2844.31 1727.96 2853.28C1704.05 2861.44 1683.2 2862.2 1651.36 2868.27C1619.52 2874.34 1607.15 2876.01 1582.22 2874.84C1557.29 2873.67 1551.66 2840.19 1540.36 2826.1C1529.06 2812 1529.4 2811.07 1506.45 2807.21C1483.5 2803.36 1483.56 2814.15 1448.54 2810.66C1413.52 2807.17 1399.98 2807.82 1366.38 2793.26C1332.79 2778.69 1338.99 2773.9 1314.16 2752.41C1289.33 2730.91 1297.89 2728.69 1267.07 2707.26C1236.25 2685.83 1220.29 2699.47 1190.88 2666.7C1161.47 2633.92 1220.8 2622.59 1183.23 2587.87C1145.66 2553.16 1103.72 2561.73 1040.6 2527.85C977.48 2493.96 989.53 2435.34 955.307 2390.39C921.085 2345.44 919.127 2377.08 903.709 2348.04C888.292 2318.99 893.638 2274.21 893.638 2274.21C893.638 2274.21 946.155 2299.69 968.792 2323.84C991.428 2347.99 984.183 2370.8 984.183 2370.8C984.183 2370.8 1000.22 2351.83 1012.8 2336.95C1025.38 2322.07 1044.95 2324.25 1044.95 2324.25C1044.95 2324.25 914.671 2260.74 883.537 2231.41C852.403 2202.07 800.252 2132.17 803.057 1962.62C805.861 1793.08 840.184 1718.46 880.983 1660.31C921.782 1602.16 999.371 1528.36 999.371 1528.36C999.371 1528.36 987.083 1539.47 956.729 1531.65C926.376 1523.83 877.955 1497.07 877.955 1497.07C877.955 1497.07 918.935 1486.42 950.376 1488.27C981.816 1490.12 1003.72 1504.47 1003.72 1504.47C1003.72 1504.47 1003.23 1475.08 1019.4 1439.88C1035.57 1404.67 1088.66 1294.62 1139.43 1267C1190.21 1239.37 1325.7 1189.58 1325.7 1189.58C1325.7 1189.58 1295.8 1187.4 1283.29 1168.96C1270.78 1150.53 1266.65 1118.01 1266.65 1118.01C1266.65 1118.01 1309.34 1118.77 1330.19 1134.88C1351.04 1150.99 1338.53 1187.36 1338.53 1187.36C1338.53 1187.36 1372.59 1180.94 1382.6 1177.91C1392.61 1174.89 1403.96 1155.1 1429.03 1147.12C1454.11 1139.14 1503.68 1138.22 1503.68 1138.22C1503.68 1138.22 1486.71 1120.5 1479.16 1096.53C1471.61 1072.56 1457.75 1039.54 1457.75 1039.54C1457.75 1039.54 1513.01 1050 1525.97 1074.63C1538.93 1099.26 1518.34 1140.03 1518.34 1140.03L1626.91 1166.5C1626.91 1166.5 1587.93 1115.82 1626.95 1068.12C1665.98 1020.42 1724.51 1000.27 1783.9 1004.48ZM1212.94 2553.8C1217.86 2552.38 1210.07 2496.99 1230.14 2480.33C1271.36 2446.11 1403.04 2479.61 1483.34 2453.15C1533.79 2436.53 1587.89 2411.34 1622.26 2373.9C1642.59 2351.75 1649.37 2321.14 1662.47 2296.79C1697.74 2231.27 1742.99 2016.14 1699.94 1935.87C1665.22 1871.12 1610.84 1857.15 1580.66 1856.85C1550.49 1856.54 1504.07 1854.94 1479.41 1898.42C1454.76 1941.91 1422.49 1968.63 1422.49 1968.63C1422.49 1968.63 1435.55 2023.23 1427.32 2060.45C1419.08 2097.66 1389.54 2117.49 1389.54 2117.49C1389.54 2117.49 1359.52 2079.59 1364.44 2043.79C1369.36 2008 1409.22 1974.31 1409.22 1974.31C1409.22 1974.31 1351.71 1979.01 1337.65 1969.37C1323.59 1959.73 1294.75 1939.96 1294.75 1939.96C1294.75 1939.96 1329.88 1925.6 1360.05 1928.78C1390.23 1931.96 1394.42 1956.2 1415.45 1952.69C1436.48 1949.18 1478.46 1892.38 1446.5 1888.1C1414.53 1883.81 1345.19 1897.79 1316.31 1897.6C1287.44 1897.41 1265.14 1879.04 1249.44 1891.61C1233.74 1904.19 1256.05 1923.74 1253.52 1947.9C1250.99 1972.06 1217.5 2013 1191.33 2023.86C1165.15 2034.71 1118.09 2023.48 1094.7 2041.2C1071.31 2058.92 1077.83 2089.94 1097.77 2094.74C1117.7 2099.55 1141.03 2065.99 1174.44 2060.41C1207.86 2054.84 1237.43 2056.97 1237.43 2056.97C1237.43 2056.97 1227.34 2091.57 1193.85 2107.89C1160.37 2124.22 1099.48 2105.35 1093.25 2117.38C1087.01 2129.42 1137.18 2140.16 1168.92 2156.03C1200.65 2171.91 1186.43 2243.23 1186.43 2243.23C1186.43 2243.23 1159.66 2198.95 1126.53 2189.8C1093.41 2180.64 1102.9 2133.37 1092.04 2134.77C1081.19 2136.17 1065.58 2159.65 1083.12 2195.4C1100.66 2231.16 1215.05 2325.52 1238.34 2319.71C1261.64 2313.9 1240.63 2283.47 1255.39 2254.55C1270.14 2225.64 1297.36 2204.05 1297.36 2204.05C1297.36 2204.05 1304.66 2231.59 1293.7 2261.77C1282.75 2291.95 1253.54 2324.76 1253.54 2324.76C1253.54 2324.76 1258.06 2336.09 1291.4 2340.91C1324.74 2345.72 1386.91 2344.01 1386.91 2344.01C1386.91 2344.01 1324.33 2357.38 1272.16 2350.91C1249.71 2348.13 1220.02 2331.78 1182.31 2307.35C1147.52 2284.81 1068.02 2201.97 1068.02 2201.97C1068.02 2201.97 1056.17 2287.53 1073.65 2306.34C1091.14 2325.14 1101.51 2321.28 1123.4 2350.25C1145.28 2379.23 1152.75 2391.23 1161.18 2422.24C1169.61 2453.25 1159.86 2456.56 1157.12 2474.28C1154.39 2492 1150.86 2480.33 1150.24 2493.11C1149.61 2505.89 1145.35 2510.6 1154.62 2525.41C1163.89 2540.22 1172.74 2545.25 1187.32 2552.35C1201.9 2559.44 1208.02 2555.21 1212.94 2553.8ZM1936.66 1978.05C1943.98 1970.13 1955.31 1956.53 1981.62 1943.69C2007.93 1930.84 2041.9 1926.67 2041.9 1926.67C2041.9 1926.67 2034.02 1954.81 2010.19 1970.56C1986.35 1986.3 1946.57 1989.64 1946.57 1989.64C1946.57 1989.64 1999.09 1996.25 2021.28 2018.53C2043.48 2040.81 2035.35 2078.76 2035.35 2078.76C2035.35 2078.76 1989.65 2072.55 1965.48 2053.68C1941.31 2034.81 1938.67 2003.29 1938.67 2003.29C1938.67 2003.29 1879.23 2034.48 1857.73 2087.14C1836.23 2139.8 1855.07 2251.2 1865.67 2276.73C1876.28 2302.26 1886.28 2368.31 1936.58 2405.83C1986.88 2443.34 1987.07 2390.13 2066.88 2426.8C2123.14 2452.64 2135.6 2461.11 2182.29 2493.38C2228.97 2525.66 2226.33 2538.23 2253.62 2555.89C2265.38 2563.5 2291.08 2560.25 2286.92 2540.71C2281.42 2514.91 2243.02 2519.69 2243.02 2519.69C2243.02 2519.69 2242.23 2495.94 2277.68 2507.76C2294.41 2513.34 2315.34 2547.52 2337.84 2562.91C2360.33 2578.31 2386.97 2566.56 2387.1 2565.29C2388.17 2555.19 2355.61 2548.83 2336.19 2507.49C2319.08 2471.09 2315.11 2461.29 2328.07 2428.77C2341.04 2396.25 2420.81 2353 2427.31 2336.12C2433.81 2319.25 2426.12 2226.53 2426.12 2226.53C2426.12 2226.53 2400.53 2310.08 2386.01 2316.44C2371.48 2322.81 2325.17 2327.85 2325.17 2327.85C2325.17 2327.85 2335.81 2279.37 2361.88 2261.11C2387.95 2242.85 2412.06 2229.81 2422.8 2214.86C2433.53 2199.9 2411.01 2103.8 2411.01 2103.8C2411.01 2103.8 2408.43 2167.71 2387.21 2196.16C2365.99 2224.62 2334.11 2226.85 2334.11 2226.85C2334.11 2226.85 2330.02 2175.57 2347.61 2142.53C2365.2 2109.49 2404.46 2094.69 2404.46 2094.69C2404.46 2094.69 2339.68 2065.41 2306.55 2042.98C2273.42 2020.54 2278.07 1987.11 2278.07 1987.11C2278.07 1987.11 2245.58 2016.27 2226.68 2011.34C2207.78 2006.4 2156.03 1989.48 2156.03 1989.48C2156.03 1989.48 2187.79 2039.21 2186.89 2064.47C2185.98 2089.74 2137.66 2121.65 2137.66 2121.65C2137.66 2121.65 2108.09 2078.2 2108.3 2049.16C2108.5 2020.12 2145.31 1990.44 2145.31 1990.44C2145.31 1990.44 2102.31 1955.83 2073.15 1933.08C2043.99 1910.33 1990.18 1833.95 1927.76 1860.32C1865.34 1886.69 1853.24 2014.55 1860.66 2026.32C1868.08 2038.09 1920.54 1981.95 1920.54 1981.95C1920.54 1981.95 1895.13 1967.2 1897.95 1947.46C1900.76 1927.72 1931.79 1903 1931.79 1903C1931.79 1903 1947.36 1920.45 1949.36 1937.29C1951.35 1954.14 1939.76 1970.37 1939.76 1970.37C1936.59 1980.55 1929.33 1985.97 1936.66 1978.05ZM1925.71 1817.54C1964.05 1802.74 2000.18 1812.83 2050.15 1796.06C2091.56 1782.17 2123.65 1772.05 2166.66 1728.65C2168.87 1726.42 2234.87 1653.37 2234.87 1653.37C2234.87 1653.37 2206.2 1646.78 2197.41 1627.04C2188.62 1607.3 2199.7 1574.43 2199.7 1574.43C2199.7 1574.43 2221.17 1572.13 2235.41 1588.84C2249.65 1605.55 2256.68 1641.26 2256.68 1641.26C2256.68 1641.26 2281.49 1628.43 2297.32 1586.82C2313.15 1545.2 2339.04 1486.56 2320 1474.81C2300.97 1463.06 2193.36 1549.2 2125.04 1571.06C2056.73 1592.91 1947.9 1627.24 1947.9 1627.24C1947.9 1627.24 1997.88 1655.33 2010.23 1690.68C2022.58 1726.03 1997.29 1768.64 1997.29 1768.64C1997.29 1768.64 1953.98 1744.28 1941.38 1709.54C1928.78 1674.8 1946.91 1629.66 1946.91 1629.66C1946.91 1629.66 1926.16 1645.18 1899.74 1665.19C1873.33 1685.21 1862.38 1679.93 1841.26 1709.71C1820.13 1739.48 1816.86 1741.8 1815.24 1784.28C1813.63 1826.77 1810.48 1867.65 1834.82 1879.64C1859.16 1891.63 1888.93 1831.73 1925.71 1817.54ZM1579.66 1406.38C1579.66 1406.38 1570.19 1389.71 1550.91 1369.23C1531.64 1348.75 1537.03 1343.47 1508.04 1318.91C1479.04 1294.36 1399.83 1221.15 1392.14 1228.98C1384.46 1236.82 1398.67 1269.74 1404.19 1302.34C1409.71 1334.94 1403.69 1326.25 1414.23 1359.4C1424.77 1392.55 1427.3 1404.48 1446.36 1434.95C1465.42 1465.42 1470.66 1462.78 1490.45 1481.28C1510.25 1499.78 1512.58 1510.87 1525.52 1508.96C1538.46 1507.06 1526.91 1483.33 1542.2 1473.66C1557.49 1463.98 1586.67 1470.27 1586.67 1470.27C1586.67 1470.27 1588.25 1491.26 1574.61 1503.42C1560.98 1515.57 1527.23 1503.25 1532.14 1518.89C1537.04 1534.53 1568.1 1541.27 1594.22 1565.99C1620.34 1590.7 1618.03 1595.36 1636.61 1617.75C1655.2 1640.14 1658.3 1626.33 1668.57 1655.54C1678.83 1684.75 1677.69 1734.58 1677.69 1734.58C1677.69 1734.58 1646.22 1711.69 1633.03 1686.11C1619.85 1660.54 1635.42 1642.29 1624.95 1632.29C1614.48 1622.28 1609.16 1629.23 1591.16 1646.1C1573.15 1662.97 1560.46 1675.21 1552.93 1699.77C1545.4 1724.34 1566.08 1721.53 1561.03 1744.37C1555.98 1767.21 1532.74 1791.13 1532.74 1791.13C1532.74 1791.13 1509.57 1768.41 1510.41 1744.88C1511.25 1721.35 1550.1 1707.68 1536.09 1697C1522.08 1686.32 1490.38 1696.35 1454.39 1702.16C1418.4 1707.98 1393.92 1699.29 1392.13 1720.26C1390.35 1741.22 1422.58 1763.55 1447.24 1786.02C1471.91 1808.5 1469.26 1803.94 1490.79 1810.16C1512.32 1816.37 1544.42 1790.45 1585.74 1801.82C1627.07 1813.2 1682.18 1825.36 1714.75 1801.33C1747.32 1777.3 1739.28 1741.54 1736.66 1707.31C1734.03 1673.09 1738.35 1679.86 1716.03 1631.22C1693.7 1582.58 1676.75 1559.78 1647.34 1512.74C1617.94 1465.7 1587.02 1425.14 1587.02 1425.14C1587.02 1425.14 1560.63 1454.26 1532.82 1441.12C1505 1427.98 1481.03 1374.46 1481.03 1374.46C1481.03 1374.46 1510.72 1385.26 1533.84 1389.23C1556.97 1393.2 1579.66 1406.38 1579.66 1406.38ZM1976.6 1369.03C1980.79 1347.29 1957.98 1351.32 1955.24 1326.69C1952.5 1302.06 1954.63 1274.76 1965.66 1270.51C1965.66 1270.51 1991.83 1290.28 1999.35 1309.7C2006.87 1329.12 1963.12 1358.43 1995.74 1348.18C2028.36 1337.94 2093.41 1290.53 2129.82 1268.71C2166.23 1246.89 2140.13 1265.98 2141.39 1260.9C2142.65 1255.81 2147.49 1259.12 2134.85 1248.36C2122.22 1237.6 2110.13 1226.65 2090.85 1217.86C2071.58 1209.07 2088.98 1209.74 2057.74 1213.2C2026.5 1216.65 2012.48 1213.11 1965.9 1231.68C1919.32 1250.26 1914.72 1252.64 1871.43 1287.5C1828.14 1322.36 1792.74 1371.12 1792.74 1371.12C1792.74 1371.12 1821.03 1436.21 1818.82 1476.02C1816.61 1515.83 1798.8 1532.52 1798.8 1532.52C1798.8 1532.52 1766.16 1493.4 1765.68 1455.34C1765.19 1417.29 1781.94 1378.12 1781.94 1378.12C1781.94 1378.12 1716.91 1410.37 1715.72 1469.69C1714.54 1529.01 1745.61 1597.48 1777.21 1615.4C1808.8 1633.31 1817.23 1581.76 1842.09 1541.34C1866.95 1500.91 1870.91 1491.06 1872.51 1457.85C1874.11 1424.64 1852.65 1438.14 1848.5 1408.48C1844.35 1378.82 1860.04 1335.07 1860.04 1335.07C1860.04 1335.07 1880.83 1364.98 1887.01 1390.96C1893.19 1416.94 1871.89 1433.3 1884.76 1438.98C1897.64 1444.65 1915.55 1431.13 1938.51 1413.65C1961.47 1396.16 1972.42 1390.77 1976.6 1369.03ZM1373.45 1686.57C1377.11 1671.55 1350.9 1631.55 1350.16 1594.34C1349.41 1557.13 1370.47 1537.72 1370.47 1537.72C1370.47 1537.72 1403.7 1601.08 1409.11 1638.26C1414.52 1675.44 1380.81 1676 1392.11 1686.44C1403.42 1696.88 1423.3 1681.04 1454.33 1680.02C1485.36 1678.99 1510.68 1689.59 1516.24 1682.34C1521.79 1675.1 1492.78 1675.17 1476.55 1651.04C1460.33 1626.91 1451.34 1585.82 1451.34 1585.82C1451.34 1585.82 1492.52 1600.36 1512.78 1621.13C1533.04 1641.91 1517.18 1670.33 1532.38 1668.91C1547.58 1667.48 1564.53 1630.75 1573.59 1615.44C1582.64 1600.13 1577.44 1616.17 1568.6 1607.67C1559.75 1599.16 1554.94 1593.29 1538.22 1581.42C1521.5 1569.54 1519.82 1569.38 1501.72 1560.16C1483.61 1550.94 1491.13 1552.9 1465.8 1544.54C1440.46 1536.18 1436.65 1537.78 1400.37 1526.73C1364.09 1515.67 1361.37 1521.89 1320.68 1500.31C1279.99 1478.74 1263.21 1454.84 1237.6 1440.45C1211.98 1426.06 1223.32 1433.23 1218.21 1442.76C1213.1 1452.29 1212.7 1458.33 1217.17 1478.57C1221.64 1498.81 1223.3 1502.71 1236.09 1523.7C1248.87 1544.7 1249.87 1539.76 1268.31 1562.56C1286.75 1585.37 1293.04 1591.97 1309.84 1614.93C1326.65 1637.89 1319.62 1636.5 1335.52 1654.41C1351.43 1672.32 1369.8 1701.59 1373.45 1686.57ZM853.947 1977.23C860.504 1975 852.819 1968.56 868.554 1952.69C884.288 1936.82 883.524 1929.64 916.887 1913.76C950.249 1897.87 966.46 1897.86 1002 1889.14C1037.55 1880.43 1033.32 1884.54 1059.06 1878.89C1084.8 1873.25 1078.38 1880.4 1104.95 1866.56C1131.53 1852.73 1137.04 1733.73 1095.75 1734.36C1054.47 1735 1034.95 1775.92 985.811 1777.65C936.669 1779.38 929.141 1746.15 899.185 1741.3C869.229 1736.44 874.835 1736.99 865.987 1758.24C857.139 1779.49 851.664 1829.9 851.664 1829.9C851.664 1829.9 894.779 1808.81 950.438 1800.96C1006.1 1793.12 1074.98 1831.04 1074.98 1831.04C1074.98 1831.04 1025.13 1864.95 963.263 1875.22C903.819 1885.09 849.472 1837.7 849.472 1837.7C849.472 1837.7 850.679 1859.41 846.116 1890.1C841.552 1920.8 840.37 1939.84 842.328 1961.62C844.286 1983.4 847.391 1979.47 853.947 1977.23ZM2326.63 1821.62C2332.18 1824.87 2316.14 1830.74 2332.74 1814.91C2349.34 1799.08 2363.45 1796.3 2393.03 1758.3C2422.61 1720.3 2407.14 1659.25 2407.14 1659.25C2407.14 1659.25 2384.69 1678.59 2357.32 1689.93C2329.95 1701.26 2297.66 1704.59 2297.66 1704.59C2297.66 1704.59 2317.63 1665.11 2343.18 1651.06C2368.73 1637.02 2399.86 1648.4 2399.86 1648.4C2399.86 1648.4 2410.26 1603.91 2371.1 1594.78C2341.17 1587.8 2306.02 1621.07 2277.04 1651.78C2248.07 1682.49 2216.45 1703.6 2216.39 1727.3C2216.34 1751.01 2248.39 1725.95 2277.96 1751.36C2307.53 1776.76 2321.07 1818.37 2326.63 1821.62ZM1829.13 1678.48C1836.3 1679.25 1832.55 1686.61 1857.14 1672.68C1881.72 1658.75 1894.43 1647.5 1927.47 1622.76C1960.51 1598.02 1983.39 1584.54 1989.3 1573.71C1995.22 1562.88 1973.59 1584.29 1951.13 1579.44C1928.67 1574.6 1899.46 1554.32 1899.46 1554.32C1899.46 1554.32 1926.07 1532.22 1949.28 1530.98C1972.48 1529.74 1992.29 1549.36 1992.29 1549.36C1992.29 1549.36 2043.79 1532.76 2091.25 1487.21C2138.7 1441.65 2166.81 1399.25 2166.46 1338.04C2166.11 1276.83 2134.09 1292.09 2108.77 1305.73C2083.46 1319.38 2054.71 1336.33 2026.28 1360.59C1997.84 1384.85 1995.03 1402.77 1995.03 1402.77C1995.03 1402.77 2020.76 1391.04 2050.49 1382.2C2080.21 1373.35 2126.86 1387.7 2126.86 1387.7C2126.86 1387.7 2095.68 1419.53 2060 1440.58C2024.32 1461.63 1970.28 1436.65 1970.28 1436.65C1970.28 1436.65 1933.9 1443.45 1907.11 1477.47C1880.32 1511.49 1860.39 1564.37 1842.03 1602.73C1823.67 1641.09 1831.71 1650.66 1828.49 1669.6C1825.27 1688.54 1821.97 1677.71 1829.13 1678.48ZM2455.62 2072.93C2455.62 2072.93 2464.11 2025.23 2498.09 2013.38C2536.5 2000 2576.91 2002.38 2576.91 2002.38L2584.55 1984.59C2584.55 1984.59 2559.06 1961.79 2530.65 1960.1C2498.02 1958.16 2483.6 1984.26 2445.77 1974.66C2404.54 1964.21 2334.32 1906.69 2329.49 1906.62C2324.67 1906.54 2299.73 1948.89 2309.38 1973.12C2319.04 1997.36 2361.29 2038.77 2406.75 2055.11C2464.92 2076.02 2456.64 2144.38 2457.78 2144.86C2458.93 2145.34 2480.07 2104.06 2516.37 2089.6C2551.38 2075.66 2588.23 2077.25 2620.79 2082.11C2649.76 2086.45 2653.69 2143.81 2662.41 2091.87C2666.87 2065.3 2670.57 2060.88 2675.75 2027.62C2680.14 1999.44 2675.85 1976.45 2673.56 1971.46C2666.12 1955.23 2617.13 1984.7 2606.09 1988.84C2589.66 1994.99 2586.03 2020.12 2586.03 2020.12C2586.03 2020.12 2570.19 2049.33 2547.46 2050.04C2524.74 2050.74 2522.68 2045.42 2502.02 2050.33C2481.37 2055.23 2455.62 2072.93 2455.62 2072.93ZM2019.1 1576.27C2019.1 1576.27 2122.63 1553.06 2173.02 1522.35C2189.18 1512.5 2241.06 1491.51 2259.73 1477.68C2299.3 1448.38 2303.72 1425.17 2303.72 1425.17C2303.72 1425.17 2267.57 1459.66 2243.63 1460.99C2219.68 1462.33 2186.72 1454.64 2186.72 1454.64C2186.72 1454.64 2211.88 1418.12 2237.07 1408.52C2262.25 1398.92 2303.29 1400.92 2303.29 1400.92C2303.29 1400.92 2308.99 1388.36 2317.05 1368.09C2325.11 1347.83 2329.2 1334.42 2335.54 1319.87C2341.87 1305.32 2341.37 1315.62 2342.4 1309.89C2343.44 1304.16 2348.48 1299.39 2332.69 1292.18C2316.9 1284.97 2296.02 1274.18 2276.51 1268.13C2257 1262.08 2254.65 1267.99 2254.65 1267.99C2254.65 1267.99 2272.6 1307.76 2273.22 1323.68C2273.83 1339.6 2240.06 1387.69 2240.06 1387.69C2240.06 1387.69 2218.71 1349.8 2221.47 1319.55C2223.84 1293.56 2236.61 1270.12 2236.61 1270.12C2236.61 1270.12 2206.26 1263.73 2197.29 1282.28C2188.33 1300.84 2192.29 1310.38 2185.67 1346.29C2168.08 1441.71 2130.98 1470.9 2095 1505.48C2059.02 1540.05 2019.1 1576.27 2019.1 1576.27ZM2233.69 1816.77C2251.42 1841.91 2265.96 1883.15 2265.96 1883.15C2265.96 1883.15 2232.35 1885.2 2206.88 1865.37C2181.41 1845.53 2180.44 1788.96 2180.44 1788.96C2180.44 1788.96 2167.98 1777.76 2150.01 1782.15C2127.71 1787.6 2097.61 1809.28 2080.2 1814.32C2063.25 1819.23 2028.2 1815.36 2013.29 1832.01C2000.06 1846.78 2030.59 1866.94 2061.62 1889.79C2096.2 1915.25 2133.22 1943.01 2148.44 1948.95C2177.32 1960.23 2188.92 1980.82 2232.68 1977.85C2276.64 1974.86 2280.83 1916.89 2293.25 1896.62C2305.67 1876.35 2308.42 1864.67 2303.5 1850.33C2298.57 1836 2286.2 1787.69 2265.77 1773.15C2245.34 1758.62 2198.32 1767.69 2195.03 1782.61C2191.75 1797.53 2215.95 1791.63 2233.69 1816.77ZM1661.49 2766.17C1644.1 2788.89 1710.63 2775.36 1710.63 2775.36C1710.63 2775.36 1670.38 2801.21 1648.18 2791.51C1625.97 2781.81 1622.26 2763.22 1606.33 2771.61C1590.4 2780 1582.15 2807.59 1584.46 2825.08C1586.77 2842.56 1587.07 2842.16 1615.56 2841.55C1644.05 2840.94 1667.28 2827.64 1698.4 2822.63C1729.53 2817.63 1720.65 2820.61 1740.06 2821.54C1759.47 2822.47 1756.3 2821.71 1776.06 2826.35C1795.82 2830.99 1808.76 2848.93 1824.88 2854.98C1841 2861.04 1850.4 2859.38 1861.75 2853.62C1873.1 2847.85 1884.39 2843.09 1885.93 2827.53C1887.48 2811.97 1870.39 2789.11 1843.31 2776.28C1822.8 2766.56 1800.54 2759.97 1782.6 2766.5C1750.03 2778.35 1712.38 2800.41 1712.38 2800.41C1712.38 2800.41 1731.23 2775.74 1751.11 2759.56C1770.99 2743.38 1780.04 2758.1 1802.11 2727.18C1824.17 2696.26 1827.8 2683 1830.63 2648.59C1833.45 2614.17 1822.8 2614.85 1813.39 2589.53C1803.98 2564.2 1807.73 2556.85 1792.99 2547.29C1778.26 2537.74 1739.6 2531.78 1717.57 2537.67C1695.54 2543.57 1664.65 2554.04 1701.23 2559.15C1742.08 2564.85 1759.06 2567.19 1771.24 2573.89C1794.71 2586.79 1796.94 2591.37 1806.86 2616.02C1821.82 2653.19 1786.65 2698.26 1751.32 2724.85C1710.02 2755.93 1678.88 2743.45 1661.49 2766.17ZM1492.1 1519.7C1476.81 1494.91 1436.35 1477.33 1405.91 1418.78C1375.46 1360.22 1386.73 1327.67 1370.32 1285.49C1353.91 1243.31 1346.87 1246.03 1340.26 1250.05C1333.64 1254.08 1349.63 1280.02 1343.86 1301.59C1338.09 1323.17 1328.04 1341.68 1317.19 1336.37C1306.33 1331.05 1298.04 1305.59 1300.45 1280.35C1302.86 1255.1 1331.74 1248.03 1326.83 1235.4C1321.92 1222.77 1286.1 1248.09 1259.1 1253.69C1232.09 1259.29 1223.75 1333.1 1235.87 1371.37C1247.99 1409.65 1249.26 1408.96 1267.31 1410.89C1285.36 1412.83 1284.73 1386.8 1308.06 1379.1C1331.39 1371.4 1360.63 1380.08 1360.63 1380.08C1360.63 1380.08 1348.6 1410.57 1327.72 1421.4C1306.83 1432.23 1282.3 1415.44 1277.09 1423.4C1271.87 1431.35 1278.63 1434.66 1306.86 1453.21C1335.09 1471.76 1349.96 1481.41 1390.01 1497.59C1430.06 1513.76 1441.53 1512.38 1467.06 1517.91C1492.58 1523.44 1507.39 1544.48 1492.1 1519.7ZM1882.96 1084.54C1844 1044.73 1792.36 1053.18 1792.36 1053.18L1779.88 1170.64C1779.88 1170.64 1817.53 1095.51 1851.34 1119.74C1888.38 1146.29 1867.65 1206.27 1837.72 1240.6C1813.81 1268.04 1780.46 1292.12 1780.46 1292.12C1780.46 1292.12 1741.82 1268.06 1719.66 1231.37C1695.15 1190.8 1666.15 1147.84 1702.22 1122.06C1734.21 1099.19 1777.88 1173.44 1777.88 1173.44C1777.88 1173.44 1750.96 1048.23 1748.18 1048.76C1706.86 1056.67 1698.59 1056.45 1670.46 1084.04C1642.34 1111.62 1649.45 1194.89 1679.52 1234.66C1709.6 1274.44 1734.22 1310.45 1780.54 1313.48C1826.86 1316.52 1853.1 1256.66 1877.62 1223.99C1902.14 1191.33 1921.92 1124.34 1882.96 1084.54ZM1682.41 1293.65C1682.41 1293.65 1689.17 1324.44 1676.81 1344.68C1664.45 1364.92 1632.97 1374.61 1632.97 1374.61C1632.97 1374.61 1620.32 1332.09 1629.88 1308.66C1639.44 1285.23 1671.21 1280.89 1671.21 1280.89C1671.21 1280.89 1652.91 1224.31 1610.08 1197.79C1567.25 1171.28 1547.43 1176.56 1499.88 1174.82C1452.34 1173.07 1415.41 1171.33 1419.8 1202.62C1424.2 1233.91 1517.46 1299.97 1517.46 1299.97C1517.46 1299.97 1491.93 1265.1 1495.45 1241.37C1498.98 1217.65 1531.58 1205.08 1531.58 1205.08C1531.58 1205.08 1556.36 1241.94 1557.28 1266.28C1558.19 1290.62 1532.94 1306.43 1532.94 1306.43C1532.94 1306.43 1561.69 1323.91 1596.9 1363.84C1632.11 1403.78 1640.33 1469.48 1676.07 1462.17C1711.81 1454.86 1738.28 1376.72 1739.87 1334.59C1741.46 1292.46 1682.41 1293.65 1682.41 1293.65ZM2456.29 1862.16C2479.03 1861.03 2558.89 1822.16 2565.8 1784.6C2568.29 1771.07 2599.29 1735.82 2599.33 1687.78C2599.37 1639.73 2566 1605.18 2566 1605.18C2566 1605.18 2563.18 1656.41 2538.2 1681.33C2513.23 1706.25 2485.57 1733.84 2485.57 1733.84C2485.57 1733.84 2476.58 1698.44 2493.68 1662.44C2510.78 1626.43 2553.96 1589.83 2553.96 1589.83C2553.96 1589.83 2438.05 1602.6 2442.77 1641.59C2451.28 1711.77 2405.8 1778.15 2396.11 1800.58C2386.43 1823.02 2433.54 1863.29 2456.29 1862.16ZM1650.46 2689.17C1676.11 2711.78 1717.72 2686.93 1733.72 2665.62C1747.93 2646.68 1748.58 2629.04 1743.94 2620.39C1733.05 2600.08 1683.82 2609.81 1673.7 2627.22C1663.51 2644.75 1680.02 2659.82 1694.34 2655.47C1708.65 2651.13 1720.23 2626.95 1720.23 2626.95C1720.23 2626.95 1719.47 2664.6 1695.52 2674.49C1665.47 2686.89 1647.26 2648.89 1647.26 2648.89C1647.26 2648.89 1643.74 2621.67 1659.06 2607.58C1674.37 2593.49 1708.53 2592.53 1708.53 2592.53C1708.53 2592.53 1765.68 2589.01 1772.45 2617.16C1779.26 2645.5 1727.19 2707.17 1693.53 2714.46C1669.7 2719.62 1631.08 2722.83 1617.24 2687.02C1603.4 2651.21 1609.54 2604.12 1619.5 2566.98C1629.66 2529.09 1680.23 2499.21 1680.23 2499.21C1680.23 2499.21 1762.82 2504.34 1779.65 2486.11C1790.39 2474.47 1798.39 2435.24 1777.58 2450.99C1775.57 2452.51 1762.96 2493.68 1735.53 2480.2C1721.18 2473.15 1713.26 2451.25 1713.26 2451.25C1713.26 2451.25 1739.38 2475.72 1752.15 2461.79C1767.34 2445.22 1742.66 2409.23 1738.97 2410.92C1691.95 2432.44 1618.99 2524.48 1607.35 2544.06C1590.73 2572 1589.3 2624.6 1593.73 2672.47C1598.16 2720.35 1617.44 2737.4 1657.09 2736.96C1696.74 2736.51 1789.58 2695.62 1787.54 2627.39C1786.44 2590.64 1692.06 2555.76 1654.45 2584.09C1623.66 2607.28 1621.78 2663.89 1650.46 2689.17ZM1048.35 2027.51C1047.77 2001.53 1049.25 1994.46 1040.87 1968.09C1032.49 1941.72 1048.06 1924.53 1014.83 1922.03C981.611 1919.54 940.437 1937.03 907.98 1958.11C875.523 1979.2 878.832 1982.06 885.005 2006.37C891.178 2030.69 902.676 2037.37 932.672 2055.39C962.668 2073.41 977.362 2074.29 1004.99 2078.44C1032.62 2082.59 1032.34 2084.73 1043.18 2071.99C1054.02 2059.26 1048.93 2053.48 1048.35 2027.51ZM2347.94 1553.84C2352.33 1557.61 2419.52 1576.82 2443.05 1578.37C2455.1 1579.16 2429.86 1546.81 2438.75 1525.73C2447.2 1505.67 2476.22 1496.33 2476.22 1496.33C2476.22 1496.33 2474.34 1518.95 2476.39 1539.39C2477.38 1549.23 2459.54 1577.25 2465.22 1576.74C2482.7 1575.16 2559.8 1566.52 2541.94 1503.58C2524.08 1440.64 2456.38 1413.55 2456.38 1413.55C2456.38 1413.55 2466.36 1443.28 2454.19 1468.54C2442.02 1493.8 2407.68 1514.59 2407.68 1514.59C2407.68 1514.59 2394.29 1470.46 2412.94 1430.96C2431.58 1391.46 2442.79 1403.18 2442.79 1403.18C2442.79 1403.18 2423.06 1360.5 2405.37 1343C2387.68 1325.5 2383.58 1332.9 2372.02 1333.18C2360.46 1333.46 2356.11 1341.91 2353.84 1354C2351.58 1366.1 2350.54 1355.88 2350.06 1392.5C2349.59 1429.13 2351.76 1469.74 2351.94 1500.51C2352.12 1531.28 2343.55 1550.06 2347.94 1553.84ZM1418.42 2580.84C1446.34 2572.58 1449.69 2569.67 1477.45 2557.78C1505.2 2545.89 1505.64 2544.86 1529.45 2533.29C1553.26 2521.72 1553.6 2523.46 1572.69 2511.5C1591.79 2499.55 1585.97 2502.93 1605.83 2485.47C1625.68 2468 1631.3 2466.88 1652.11 2441.64C1672.93 2416.4 1682.64 2403.55 1689.1 2384.51C1695.55 2365.48 1698.72 2355.16 1677.92 2365.5C1657.13 2375.84 1646.31 2399.47 1605.91 2425.87C1565.52 2452.26 1549.13 2455.2 1516.33 2471.08C1483.54 2486.96 1417.88 2477.22 1421.08 2485.97C1421.41 2486.86 1443.91 2502.04 1458.14 2506.52C1474.52 2511.69 1494.03 2513.42 1499.12 2513.2C1518.07 2512.39 1533.38 2486.65 1533.38 2486.65C1533.38 2486.65 1531.7 2526.25 1499.59 2531.2C1467.47 2536.16 1423.92 2507.17 1400.67 2525.89C1377.43 2544.62 1370.42 2559.28 1354.43 2573.77C1338.43 2588.27 1342.54 2580.17 1336.69 2583.87C1330.85 2587.56 1390.49 2589.11 1418.42 2580.84ZM1411.16 1793.99C1383 1767.15 1361.02 1737.02 1361.02 1737.02C1361.02 1737.02 1356.26 1789.65 1333.65 1815.13C1311.03 1840.61 1267.3 1842.5 1267.3 1842.5C1267.3 1842.5 1272.07 1792.94 1293.43 1762.64C1314.79 1732.34 1352.28 1727.72 1352.28 1727.72C1352.28 1727.72 1314.89 1692.71 1300.59 1693.07C1286.28 1693.43 1313.76 1690.24 1295.52 1722.73C1277.29 1755.22 1242.84 1788.1 1227.65 1823.03C1212.46 1857.96 1206.7 1852.54 1234.77 1862.44C1262.84 1872.34 1297.47 1864.2 1339.93 1862.64C1382.38 1861.08 1371.96 1859.88 1404.58 1856.21C1437.21 1852.54 1468.78 1863.5 1470.42 1847.95C1472.07 1832.39 1439.33 1820.83 1411.16 1793.99ZM1120.17 1337.58C1119.58 1359.54 1151.96 1354.4 1162.05 1384.78C1172.13 1415.16 1160.53 1459.1 1160.53 1459.1C1160.53 1459.1 1121.73 1431.03 1107.25 1405.05C1092.77 1379.06 1113.32 1340.06 1102.61 1355.16C1091.89 1370.25 1024.15 1432.32 1049.73 1501.5C1064.32 1540.94 1144.36 1523.99 1162.58 1507.74C1180.8 1491.49 1199.97 1477.93 1200.64 1427.86C1201.32 1377.79 1208.37 1326.81 1199.31 1294.08C1190.25 1261.35 1184.19 1286.07 1164.4 1296.94C1144.61 1307.82 1120.76 1315.62 1120.17 1337.58ZM2559.9 2249.83C2583.55 2236.21 2624.51 2211.2 2628.33 2181.25C2631.08 2159.72 2599.44 2129.05 2599.44 2129.05C2599.44 2129.05 2568.33 2146 2557.04 2171.06C2545.61 2196.43 2566.62 2216.94 2566.62 2216.94C2566.62 2216.94 2522.59 2248.11 2501.03 2215.7C2483.62 2189.54 2492 2184.9 2513.72 2161.02C2538.56 2133.71 2582.63 2117.99 2582.63 2117.99C2582.63 2117.99 2542.95 2109.91 2514.52 2125.77C2486.1 2141.63 2476.23 2156.16 2464.81 2192.67C2453.39 2229.18 2467.08 2255.2 2468.85 2271.8C2470.61 2288.4 2519.25 2273.22 2559.9 2249.83ZM1046.59 2202.96C1051.01 2163.47 1062.57 2132.48 1041.17 2110.49C1019.77 2088.5 956.893 2104.27 956.893 2104.27C956.893 2104.27 985.014 2125.96 988.048 2153.72C991.081 2181.48 973.118 2226.03 973.118 2226.03C973.118 2226.03 918.664 2194.93 916.076 2161.42C913.488 2127.91 939.555 2101.76 939.555 2101.76C939.555 2101.76 878.964 2036.99 860.639 2044.19C842.314 2051.4 849.152 2086.69 866.255 2130.59C883.358 2174.49 889.752 2185.34 929.051 2219.8C968.35 2254.26 994.068 2272.64 1023.45 2268.43C1052.83 2264.22 1042.16 2242.45 1046.59 2202.96ZM1274.65 1689.77C1291.19 1645.73 1275.65 1633.2 1242.44 1627.44C1219.81 1623.51 1199.33 1636.81 1199.33 1636.81C1199.33 1636.81 1202.34 1642.15 1223.29 1665.59C1256.43 1702.65 1235.1 1715.1 1235.1 1715.1C1235.1 1715.1 1185.11 1705.85 1168.75 1685.02C1152 1663.68 1182.21 1640.46 1179.93 1638.62C1163.29 1625.16 1120.75 1622.86 1104.45 1637.16C1088.14 1651.45 1121.2 1695.46 1139.47 1725.09C1147.34 1737.86 1169.97 1813.57 1187.79 1814.34C1219.12 1815.69 1258.1 1733.81 1274.65 1689.77ZM1084.92 2503.28C1091.67 2499.67 1064.63 2487.7 1052.57 2463.97C1040.51 2440.24 1049.66 2393.97 1049.66 2393.97C1049.66 2393.97 1073.14 2409.05 1090.52 2428.45C1107.89 2447.84 1095.09 2485.41 1106.17 2485.95C1117.24 2486.49 1136.23 2463.19 1134.83 2430.61C1133.43 2398.02 1123.73 2384.45 1100.56 2355.61C1077.4 2326.77 1045.35 2324.96 1045.35 2324.96C1045.35 2324.96 1058.94 2347.62 1045.05 2367.5C1031.17 2387.39 987.814 2390.67 987.814 2390.67C987.814 2390.67 1000.98 2451.27 1025.55 2478.38C1050.12 2505.5 1078.16 2506.88 1084.92 2503.28ZM1972.42 2856.38C1986.14 2855.78 1969.97 2856.86 1965.89 2851.17C1961.81 2845.48 1963.3 2817.57 1960.88 2796.69C1958.45 2775.81 1959.1 2761.35 1947.03 2735.08C1934.95 2708.8 1931.7 2713.03 1912.58 2691.59C1893.47 2670.14 1884.54 2652.08 1870.57 2649.29C1856.61 2646.51 1864.97 2662.66 1856.73 2680.44C1848.49 2698.22 1837.62 2704.57 1837.6 2720.42C1837.58 2736.28 1839.41 2727.18 1856.65 2743.85C1873.89 2760.53 1891.34 2771.93 1906.54 2787.12C1921.74 2802.3 1915.55 2789.43 1917.47 2804.58C1919.38 2819.73 1915.83 2835.46 1914.21 2847.72C1912.59 2859.98 1896.43 2851.44 1910.99 2853.6C1925.54 2855.77 1958.69 2856.99 1972.42 2856.38ZM2073.8 2765.19C2097.65 2766.82 2092.75 2767.75 2102.22 2759.1C2103.7 2757.74 2097.14 2745.1 2100.96 2728.62C2102.77 2720.78 2117.48 2679.98 2119.49 2675.43C2129.97 2651.71 2162.87 2651.8 2172.11 2661.02C2197.2 2686.08 2168.8 2718.56 2168.8 2718.56C2168.8 2718.56 2167.53 2684.46 2156.62 2686.87C2145.71 2689.28 2137.69 2707.83 2135.77 2721.75C2133.7 2736.83 2134.34 2755.49 2139.69 2754.68C2157.15 2752.01 2191.43 2722 2202.79 2705.22C2214.15 2688.44 2212.95 2673.81 2198.15 2659.42C2183.35 2645.04 2151.04 2627.7 2141.65 2632C2127.07 2638.67 2103.72 2697.06 2068.69 2712.24C2033.66 2727.41 2017.25 2695.2 2009.29 2693.91C2001.33 2692.61 1985.31 2716.5 1984.72 2727.62C1984.14 2738.73 1986.06 2747.27 2006.81 2752.58C2027.56 2757.89 2049.95 2763.56 2073.8 2765.19ZM1475.72 2626.07C1484.5 2629.49 1503.08 2614.66 1515.85 2630.98C1528.61 2647.31 1532.27 2670.04 1526.79 2691.38C1521.31 2712.73 1477.64 2728.88 1482.22 2737.88C1486.8 2746.87 1481.96 2755.56 1498.06 2763.38C1514.15 2771.2 1531.97 2768.89 1546.59 2769.15C1561.21 2769.42 1550.19 2768.99 1556.54 2764.44C1562.89 2759.89 1563.94 2764.38 1571.97 2750.94C1580 2737.51 1572.41 2703.78 1568.47 2660.57C1564.52 2617.36 1575.08 2587.12 1556.18 2578.12C1537.29 2569.11 1500.86 2605.31 1480.74 2617.3C1460.63 2629.29 1466.94 2622.65 1475.72 2626.07ZM1924.4 2528.46C1945.14 2541.81 1956.95 2543.53 1963.56 2575.84C1970.16 2608.14 1954.6 2629.81 1950.83 2657.69C1947.05 2685.58 1944.59 2681.31 1948.46 2687.38C1952.34 2693.45 1953.08 2693.33 1966.32 2681.97C1979.55 2670.61 1990.93 2663.47 2001.39 2641.95C2011.85 2620.43 2011.74 2619.51 2008.17 2595.9C2004.59 2572.28 2000.36 2570.38 1987.09 2547.48C1973.83 2524.58 1975.69 2520.76 1955.1 2504.29C1934.51 2487.82 1932.31 2478.69 1905.52 2468.2C1878.72 2457.7 1865.83 2461.09 1847.91 2462.32C1829.99 2463.56 1833.22 2473.15 1833.05 2486.52C1832.89 2499.89 1835.38 2506.82 1847.26 2515.81C1859.15 2524.79 1861.32 2519.29 1880.6 2522.46C1899.89 2525.62 1903.67 2515.12 1924.4 2528.46ZM2395.98 2416.24C2340.65 2423.1 2360.68 2446 2354.24 2465.22C2352.55 2470.28 2366.56 2448.85 2383.1 2441.38C2400.34 2433.6 2440.34 2442.11 2440.34 2442.11C2440.34 2442.11 2433.99 2465.66 2415.11 2477.65C2396.24 2489.64 2365.43 2481.89 2365.43 2481.89C2365.43 2481.89 2396.69 2532.58 2421.88 2533.95C2447.07 2535.31 2467.09 2498.91 2466.2 2487.36C2464.32 2463.09 2451.3 2409.39 2395.98 2416.24ZM1028.3 1559.37C1005.72 1566.46 957.465 1620.71 957.465 1620.71C957.465 1620.71 1005.2 1635.15 1028.11 1656.65C1051.03 1678.14 1049.12 1706.69 1049.12 1706.69C1049.12 1706.69 1010.63 1732.2 983.899 1715.24C957.172 1698.28 942.21 1638.85 942.21 1638.85C942.21 1638.85 916.643 1684.18 920.19 1710.47C923.738 1736.76 930.101 1735.26 956.4 1744.01C982.698 1752.76 992.999 1753.61 1025.38 1745.48C1057.77 1737.34 1077.47 1738.78 1085.93 1711.47C1094.4 1684.16 1068.77 1666.01 1059.24 1636.24C1049.7 1606.46 1055.52 1611.58 1047.78 1592.37C1040.05 1573.15 1050.88 1552.29 1028.3 1559.37ZM1146.87 1919.32C1173.2 1910.8 1193.98 1900.81 1193.98 1900.81C1193.98 1900.81 1191 1871.8 1175.72 1870.13C1160.44 1868.45 1164.13 1882.45 1132.85 1894.1C1101.58 1905.75 1065.18 1891.96 1050.63 1916.74C1036.08 1941.52 1054.61 1973.42 1074.67 1993.21C1094.72 2013.01 1098.95 2002.93 1130.84 1995.93C1162.73 1988.93 1185.34 1983.38 1202.21 1965.21C1219.08 1947.04 1198.32 1923.25 1198.32 1923.25C1198.32 1923.25 1177.17 1955.24 1149.76 1958.15C1122.34 1961.05 1088.67 1934.86 1088.67 1934.86C1088.67 1934.86 1120.55 1927.83 1146.87 1919.32ZM1286.87 2590.42C1301.46 2584.49 1329.58 2564.04 1329.79 2555.47C1329.88 2551.59 1328.25 2536.63 1313.89 2531.74C1287.69 2522.82 1264.04 2537.52 1264.04 2537.52C1264.04 2537.52 1271.12 2515.74 1290.04 2512.26C1308.96 2508.78 1332.08 2508.78 1346.19 2528.5C1361.28 2549.61 1375.74 2518.58 1373.78 2509.18C1371.83 2499.79 1366.06 2487.08 1331.92 2486.02C1297.77 2484.96 1246.55 2485.81 1240.16 2513.38C1233.76 2540.94 1272.29 2596.34 1286.87 2590.42ZM2111.73 2623.05C2112.54 2607.34 2116.9 2541.67 2092.74 2520.67C2071.05 2501.83 2005.56 2483.72 2017.29 2513.73C2029.03 2543.73 2044.83 2561.59 2038.73 2599.83C2032.64 2638.06 2015.59 2665.63 2022.66 2675.77C2029.72 2685.91 2037.22 2690.53 2051.13 2693.7C2057.48 2695.15 2076.74 2684.44 2078.58 2670.23C2078.88 2667.85 2064.25 2655.21 2062.38 2625.88C2060.22 2592.14 2070.74 2541.31 2070.74 2541.31C2070.74 2541.31 2071.35 2559.02 2076.51 2609.91C2083.9 2682.89 2111.22 2633.01 2111.73 2623.05ZM2369.08 2650.99C2380.22 2631.09 2363.09 2603.45 2362.21 2597.97C2360.48 2587.28 2376.76 2601.05 2360.78 2596.39C2344.8 2591.73 2323.15 2590.88 2304.05 2590.06C2284.95 2589.25 2280.71 2609.96 2276.65 2629.12C2272.58 2648.29 2268.43 2664.82 2265.13 2678.58C2263.36 2685.94 2303.21 2702.63 2330.15 2695.36C2353.62 2689.04 2364.16 2659.79 2369.08 2650.99ZM1144.48 1529.28C1136.71 1523.37 1071.84 1548.72 1078.32 1564.65C1084.79 1580.57 1087.67 1583.84 1104.59 1595.3C1121.52 1606.76 1173.14 1606.73 1194.94 1609.09C1216.74 1611.46 1260.24 1601.22 1258.24 1596.8C1221.91 1516.52 1169.53 1526.84 1160.29 1529.52C1151.04 1532.2 1177.96 1544.22 1176.7 1558.76C1175.44 1573.31 1147.35 1588.82 1147.35 1588.82C1147.35 1588.82 1126.08 1564.91 1123.39 1550.31C1120.7 1535.7 1152.26 1535.2 1144.48 1529.28ZM2134.2 2514.93C2129.49 2515.06 2137.57 2582.37 2149.53 2603.66C2161.49 2624.95 2169.76 2615.85 2186.88 2625.83C2203.99 2635.81 2226.27 2653.99 2230.71 2654.69C2235.16 2655.39 2226.96 2598.69 2221.56 2583.4C2218.65 2575.2 2203.58 2543.87 2181.62 2527.9C2162.65 2514.1 2136.38 2514.86 2134.2 2514.93ZM1406.62 2774.55C1426.23 2789.87 1455.56 2787.46 1463.41 2783.18C1471.25 2778.91 1471.28 2778.62 1473.12 2768.99C1474.96 2759.36 1465.18 2735.1 1461.09 2730.61C1457.01 2726.12 1438.34 2712.43 1430.29 2703.2C1422.24 2693.96 1418.3 2685.56 1413.67 2685.74C1409.05 2685.92 1381.82 2703.55 1384.97 2721.91C1388.12 2740.28 1387.01 2759.24 1406.62 2774.55ZM1278.07 2675.12C1304.63 2665.32 1361.95 2630.19 1372.91 2616.6C1383.88 2603.02 1291.12 2625.83 1257.63 2602.6C1224.13 2579.37 1204.04 2635.76 1212.35 2647.4C1220.67 2659.05 1251.51 2684.92 1278.07 2675.12ZM1942.96 2606.58C1941.88 2587.55 1940.48 2576.76 1933.2 2563.83C1925.93 2550.89 1869.65 2539.83 1862.18 2553.33C1854.7 2566.82 1856.56 2578.51 1870.07 2600.92C1883.57 2623.34 1900.64 2631.2 1916.2 2642.98C1931.75 2654.76 1925.61 2657.14 1932.3 2648.04C1938.99 2638.94 1944.05 2625.6 1942.96 2606.58ZM1337.58 2732.44C1346.09 2731.57 1366.8 2688.19 1384.01 2666.3C1401.23 2644.41 1417.94 2635.84 1422.39 2625.51C1426.83 2615.17 1422.38 2613.64 1401.79 2624.96C1381.19 2636.27 1363.97 2656.09 1340.01 2670.76C1316.04 2685.43 1289.33 2692.4 1292.17 2702.9C1295.01 2713.4 1305.94 2718.24 1317.29 2725.62C1328.65 2733.01 1329.06 2733.31 1337.58 2732.44ZM2070.13 2798.57C2054.31 2795.41 2034.29 2791.48 2017.04 2787.37C1999.79 2783.27 2010.61 2781.08 2001.11 2782.15C1991.62 2783.22 1985.01 2781.11 1979.06 2791.63C1973.1 2802.16 1990.76 2853.11 2008.18 2845.12C2025.59 2837.12 2066.43 2814.77 2074.68 2808.31C2082.93 2801.84 2085.94 2801.74 2070.13 2798.57ZM1822.59 2415.22C1830.4 2408.59 1851.57 2408 1850.18 2388.49C1848.79 2368.98 1834.15 2377.72 1820.15 2352.41C1806.15 2327.11 1794.17 2287.26 1794.17 2287.26C1794.17 2287.26 1783.34 2329.84 1786.35 2352.46C1789.35 2375.08 1809.87 2399.32 1818.93 2415C1827.99 2430.69 1814.77 2421.85 1822.59 2415.22ZM1499.31 2658.06C1495.43 2656.17 1475.92 2667.76 1475.92 2667.76C1475.92 2667.76 1451.93 2656.83 1447.7 2658.47C1444.01 2659.9 1441.42 2674.36 1448.41 2685.48C1455.96 2697.52 1473.3 2706.24 1473.3 2706.24C1473.3 2706.24 1489.09 2702.2 1496.35 2691.36C1504.41 2679.33 1503.83 2660.26 1499.31 2658.06Z" fill="#000000" fill-rule="nonzero" opacity="1" stroke="none" vectornator:layerName="path"/>
</g>
</g>
</svg>
