<?xml version="1.0" encoding="UTF-8" standalone="no"?>
<!DOCTYPE svg PUBLIC "-//W3C//DTD SVG 1.1//EN" "http://www.w3.org/Graphics/SVG/1.1/DTD/svg11.dtd">
<!-- Created with Vectornator (http://vectornator.io/) -->
<svg height="100%" stroke-miterlimit="10" style="fill-rule:nonzero;clip-rule:evenodd;stroke-linecap:round;stroke-linejoin:round;" version="1.1" viewBox="0 0 3600 3415.88" width="100%" xml:space="preserve" xmlns="http://www.w3.org/2000/svg" xmlns:xlink="http://www.w3.org/1999/xlink">
<defs/>
<g id="Moon">
<path d="M1612.13 1695.22C1612.13 1169.73 2038.13 743.738 2563.62 743.738C3089.11 743.738 3515.11 1169.73 3515.11 1695.22C3515.11 2220.72 3089.11 2646.71 2563.62 2646.71C2038.13 2646.71 1612.13 2220.72 1612.13 1695.22Z" fill="#755686" fill-rule="nonzero" opacity="0.627" stroke="#a500ff" stroke-linecap="butt" stroke-linejoin="round" stroke-width="10"/>
<path d="M67.934 1666.06C67.934 1140.57 493.929 714.57 1019.42 714.57C1544.91 714.57 1970.91 1140.57 1970.91 1666.06C1970.91 2191.55 1544.91 2617.54 1019.42 2617.54C493.929 2617.54 67.934 2191.55 67.934 1666.06Z" fill="#626a9c" fill-rule="nonzero" opacity="1" stroke="#a500ff" stroke-linecap="butt" stroke-linejoin="round" stroke-width="10"/>
<path d="M591.909 1766.22C591.909 1126.42 1110.57 607.765 1750.36 607.765C2390.16 607.765 2908.82 1126.42 2908.82 1766.22C2908.82 2406.02 2390.16 2924.68 1750.36 2924.68C1110.57 2924.68 591.909 2406.02 591.909 1766.22Z" fill="#8475a0" fill-rule="nonzero" opacity="1" stroke="#ce95ee" stroke-linecap="butt" stroke-linejoin="round" stroke-width="12.1752"/>
<g opacity="1">
<path d="M1779.98 613.205C1851.32 618.263 1886.25 629.288 1930.52 677.624C1974.78 725.959 1942.86 873.033 1942.86 873.033L2034.41 841.729C2034.41 841.729 2041.35 786.059 2065.85 753.356C2090.34 720.654 2132.39 710.92 2132.39 710.92C2132.39 710.92 2147.15 739.139 2128.78 771.076C2110.4 803.014 2058.9 838.671 2058.9 838.671C2058.9 838.671 2096.94 827.252 2145.9 837.804C2194.87 848.357 2216.71 872.514 2254.77 880.88C2292.84 889.247 2285.24 895.524 2298.16 871.271C2311.08 847.018 2281.13 811.968 2306.45 783.867C2331.76 755.766 2399.43 758.868 2399.43 758.868C2399.43 758.868 2421.79 799.075 2402.47 828.944C2383.14 858.812 2326.16 860.967 2322.13 878.341C2318.1 895.716 2351.41 884.618 2386.35 898.442C2421.3 912.267 2432.73 917.777 2461.91 933.639C2491.09 949.501 2474.14 941.223 2503.07 961.89C2532 982.557 2577.63 1016.31 2577.63 1016.31C2577.63 1016.31 2599.76 1011.96 2634.3 1018.53C2668.83 1025.1 2715.78 1042.6 2715.78 1042.6C2715.78 1042.6 2674.19 1069.53 2643.29 1069.87C2612.39 1070.21 2592.19 1043.94 2592.19 1043.94C2592.19 1043.94 2736.92 1163.01 2769.41 1262.32C2782.94 1303.67 2808.92 1356.95 2807.03 1408.83C2804.39 1481.54 2769.81 1548.39 2769.81 1548.39C2769.81 1548.39 2804.08 1521.68 2831.49 1540.93C2858.9 1560.18 2879.45 1625.38 2879.45 1625.38C2879.45 1625.38 2839.29 1639.87 2803.2 1628.35C2767.11 1616.83 2757.92 1575.69 2757.92 1575.69C2757.92 1575.69 2689.16 1636.18 2649.02 1653.61C2608.87 1671.05 2576.53 1678.15 2541.84 1665.36C2507.14 1652.56 2492.27 1614.72 2481.06 1613.46C2469.85 1612.19 2455.5 1609.26 2454.01 1625.07C2452.52 1640.87 2441.72 1669.24 2468.29 1678.98C2476.46 1681.97 2502.78 1721.17 2545.41 1733.13C2588.04 1745.09 2614.71 1705.34 2680.06 1714.71C2739.27 1723.19 2852.29 1725.5 2852.29 1725.5C2852.29 1725.5 2789.22 1721.43 2767.27 1705.54C2740.86 1686.43 2712.89 1645.66 2712.89 1645.66C2712.89 1645.66 2776.38 1640.28 2812.16 1659.57C2847.93 1678.85 2869.14 1707.19 2869.14 1707.19C2869.14 1707.19 2894.96 1744.7 2897.91 1792.58C2901.62 1853.06 2881.44 1930.09 2866.7 1969.06C2850.04 2013.13 2829.98 2114.08 2800.63 2131.25C2771.27 2148.42 2664.04 2175.8 2625.57 2198.31C2587.11 2220.81 2572.38 2246.84 2570.24 2258.54C2569.15 2264.5 2611.03 2321.12 2640.43 2319.8C2668.75 2318.53 2684.62 2259.42 2684.62 2259.42C2684.62 2259.42 2705.1 2212.77 2732.96 2191.89C2760.82 2171.01 2832.28 2155.88 2832.28 2155.88C2832.28 2155.88 2826.43 2220.79 2782.77 2250.24C2739.1 2279.68 2706.34 2277.18 2706.34 2277.18C2706.34 2277.18 2747.87 2282.15 2777.51 2292.89C2797.36 2300.08 2804.98 2322.47 2804.98 2322.47C2804.98 2322.47 2778.88 2333.12 2747.48 2346.63C2701.32 2366.51 2700 2297.19 2700 2297.19C2700 2297.19 2691.37 2366.12 2656.19 2416.08C2621 2466.04 2581.47 2472.36 2559.27 2497.04C2537.06 2521.72 2523.95 2574.42 2510.32 2605.13C2497.84 2633.24 2473.81 2651.1 2441.66 2668.54C2421.17 2679.66 2364.2 2647.65 2329.92 2673.51C2295.65 2699.37 2247.94 2735.53 2200.55 2766.7C2153.16 2797.88 2168.62 2779.99 2140.36 2798.21C2112.11 2816.42 2111.99 2823.62 2087.52 2839.56C2063.05 2855.51 2067.85 2854.49 2042.48 2862C2017.12 2869.5 1925.96 2895.86 1888.91 2894.19C1866.71 2893.19 1831.75 2886.65 1798.02 2869.23C1775.45 2857.56 1744.32 2822.93 1712.79 2833.7C1684.08 2843.5 1659.03 2844.41 1620.79 2851.7C1582.56 2858.99 1567.69 2861 1537.75 2859.59C1507.81 2858.19 1501.04 2817.98 1487.47 2801.05C1473.9 2784.13 1474.32 2783.01 1446.75 2778.37C1419.18 2773.74 1419.25 2786.7 1377.2 2782.51C1335.14 2778.32 1318.87 2779.1 1278.52 2761.61C1238.17 2744.12 1245.62 2738.37 1215.8 2712.54C1185.98 2686.72 1196.25 2684.06 1159.24 2658.33C1122.22 2632.59 1103.06 2648.97 1067.73 2609.6C1032.41 2570.24 1103.67 2556.63 1058.55 2514.94C1013.42 2473.24 963.049 2483.54 887.24 2442.84C811.43 2402.14 825.902 2331.74 784.799 2277.75C743.697 2223.76 741.345 2261.76 722.828 2226.88C704.311 2191.99 710.732 2138.21 710.732 2138.21C710.732 2138.21 773.808 2168.81 800.995 2197.82C828.182 2226.82 819.481 2254.22 819.481 2254.22C819.481 2254.22 838.742 2231.44 853.852 2213.56C868.962 2195.69 892.463 2198.3 892.463 2198.3C892.463 2198.3 735.993 2122.03 698.6 2086.8C661.207 2051.57 598.571 1967.61 601.939 1763.98C605.307 1560.34 646.531 1470.73 695.533 1400.88C744.534 1331.04 837.722 1242.41 837.722 1242.41C837.722 1242.41 822.964 1255.75 786.508 1246.36C750.051 1236.96 691.896 1204.82 691.896 1204.82C691.896 1204.82 741.115 1192.03 778.876 1194.26C816.638 1196.48 842.943 1213.71 842.943 1213.71C842.943 1213.71 842.352 1178.42 861.775 1136.13C881.198 1093.85 944.958 961.678 1005.95 928.498C1066.93 895.319 1229.66 835.522 1229.66 835.522C1229.66 835.522 1193.75 832.898 1178.72 810.756C1163.7 788.614 1158.74 749.564 1158.74 749.564C1158.74 749.564 1210.01 750.475 1235.05 769.823C1260.09 789.171 1245.07 832.85 1245.07 832.85C1245.07 832.85 1285.97 825.139 1297.99 821.507C1310.02 817.874 1323.65 794.102 1353.77 784.518C1383.88 774.933 1443.42 773.828 1443.42 773.828C1443.42 773.828 1423.03 752.552 1413.97 723.762C1404.91 694.972 1388.26 655.312 1388.26 655.312C1388.26 655.312 1454.62 667.874 1470.19 697.457C1485.76 727.041 1461.03 776 1461.03 776L1591.43 807.797C1591.43 807.797 1544.61 746.93 1591.48 689.638C1638.35 632.347 1708.64 608.147 1779.98 613.205ZM1094.23 2474.01C1100.14 2472.31 1090.78 2405.78 1114.88 2385.77C1164.39 2344.67 1322.55 2384.9 1418.99 2353.13C1479.59 2333.17 1544.56 2302.91 1585.84 2257.94C1610.26 2231.33 1618.4 2194.58 1634.14 2165.33C1676.49 2086.64 1730.85 1828.25 1679.14 1731.85C1637.43 1654.08 1572.12 1637.3 1535.88 1636.94C1499.64 1636.57 1443.89 1634.65 1414.28 1686.87C1384.66 1739.1 1345.9 1771.19 1345.9 1771.19C1345.9 1771.19 1361.6 1836.77 1351.71 1881.47C1341.81 1926.17 1306.34 1949.98 1306.34 1949.98C1306.34 1949.98 1270.28 1904.46 1276.18 1861.47C1282.09 1818.48 1329.97 1778.02 1329.97 1778.02C1329.97 1778.02 1260.89 1783.67 1244.01 1772.09C1227.12 1760.51 1192.48 1736.76 1192.48 1736.76C1192.48 1736.76 1234.67 1719.51 1270.92 1723.33C1307.16 1727.15 1312.2 1756.26 1337.45 1752.05C1362.71 1747.84 1413.13 1679.62 1374.74 1674.47C1336.35 1669.32 1253.07 1686.12 1218.38 1685.89C1183.7 1685.66 1156.92 1663.59 1138.07 1678.69C1119.22 1693.79 1146.01 1717.28 1142.97 1746.29C1139.93 1775.31 1099.71 1824.49 1068.27 1837.52C1036.83 1850.56 980.31 1837.07 952.217 1858.35C924.125 1879.64 931.958 1916.89 955.901 1922.66C979.845 1928.43 1007.86 1888.12 1047.99 1881.43C1088.12 1874.73 1123.65 1877.29 1123.65 1877.29C1123.65 1877.29 1111.52 1918.85 1071.31 1938.45C1031.09 1958.06 957.962 1935.4 950.474 1949.85C942.986 1964.31 1003.23 1977.21 1041.35 1996.27C1079.47 2015.34 1062.39 2101 1062.39 2101C1062.39 2101 1030.24 2047.82 990.449 2036.83C950.662 2025.83 962.06 1969.05 949.026 1970.73C935.991 1972.42 917.247 2000.62 938.312 2043.56C959.377 2086.5 1096.76 2199.83 1124.74 2192.86C1152.72 2185.88 1127.49 2149.33 1145.21 2114.6C1162.93 2079.87 1195.63 2053.94 1195.63 2053.94C1195.63 2053.94 1204.39 2087.02 1191.23 2123.27C1178.07 2159.51 1143 2198.92 1143 2198.92C1143 2198.92 1148.42 2212.53 1188.46 2218.31C1228.51 2224.1 1303.18 2222.05 1303.18 2222.05C1303.18 2222.05 1228.01 2238.1 1165.36 2230.33C1138.39 2226.99 1102.74 2207.35 1057.45 2178.01C1015.66 2150.95 920.168 2051.45 920.168 2051.45C920.168 2051.45 905.945 2154.21 926.94 2176.79C947.936 2199.38 960.402 2194.74 986.683 2229.54C1012.96 2264.34 1021.94 2278.76 1032.07 2316C1042.19 2353.24 1030.48 2357.22 1027.19 2378.5C1023.9 2399.78 1019.67 2385.77 1018.92 2401.12C1018.17 2416.47 1013.05 2422.13 1024.19 2439.91C1035.32 2457.7 1045.95 2463.74 1063.46 2472.26C1080.97 2480.79 1088.32 2475.71 1094.23 2474.01ZM1963.45 1782.51C1972.25 1773 1985.85 1756.66 2017.45 1741.23C2049.05 1725.81 2089.85 1720.79 2089.85 1720.79C2089.85 1720.79 2080.39 1754.6 2051.76 1773.51C2023.14 1792.42 1975.35 1796.43 1975.35 1796.43C1975.35 1796.43 2038.43 1804.37 2065.09 1831.13C2091.74 1857.89 2081.98 1903.47 2081.98 1903.47C2081.98 1903.47 2027.1 1896.01 1998.07 1873.35C1969.04 1850.68 1965.86 1812.82 1965.86 1812.82C1965.86 1812.82 1894.48 1850.28 1868.65 1913.53C1842.83 1976.77 1865.46 2110.58 1878.19 2141.24C1890.93 2171.9 1902.94 2251.23 1963.36 2296.29C2023.77 2341.35 2023.99 2277.43 2119.85 2321.47C2187.43 2352.52 2202.39 2362.69 2258.46 2401.45C2314.53 2440.21 2311.36 2455.31 2344.13 2476.52C2358.26 2485.66 2389.13 2481.76 2384.12 2458.29C2377.52 2427.31 2331.41 2433.05 2331.41 2433.05C2331.41 2433.05 2330.45 2404.51 2373.04 2418.72C2393.13 2425.42 2418.27 2466.46 2445.28 2484.96C2472.3 2503.45 2504.29 2489.33 2504.45 2487.81C2505.74 2475.68 2466.63 2468.04 2443.3 2418.39C2422.76 2374.67 2417.99 2362.9 2433.56 2323.84C2449.13 2284.79 2544.94 2232.84 2552.75 2212.57C2560.56 2192.3 2551.32 2080.94 2551.32 2080.94C2551.32 2080.94 2520.58 2181.29 2503.14 2188.93C2485.69 2196.58 2430.07 2202.64 2430.07 2202.64C2430.07 2202.64 2442.85 2144.41 2474.16 2122.48C2505.47 2100.54 2534.43 2084.88 2547.32 2066.92C2560.21 2048.96 2533.17 1933.54 2533.17 1933.54C2533.17 1933.54 2530.07 2010.3 2504.59 2044.47C2479.1 2078.65 2440.8 2081.33 2440.8 2081.33C2440.8 2081.33 2435.9 2019.74 2457.02 1980.06C2478.15 1940.37 2525.3 1922.6 2525.3 1922.6C2525.3 1922.6 2447.5 1887.44 2407.71 1860.49C2367.92 1833.54 2373.5 1793.39 2373.5 1793.39C2373.5 1793.39 2334.47 1828.41 2311.77 1822.49C2289.07 1816.56 2226.93 1796.24 2226.93 1796.24C2226.93 1796.24 2265.07 1855.97 2263.99 1886.31C2262.9 1916.65 2204.86 1954.98 2204.86 1954.98C2204.86 1954.98 2169.35 1902.79 2169.59 1867.91C2169.84 1833.04 2214.05 1797.39 2214.05 1797.39C2214.05 1797.39 2162.4 1755.82 2127.38 1728.5C2092.36 1701.18 2027.73 1609.44 1952.76 1641.11C1877.79 1672.78 1863.26 1826.35 1872.17 1840.48C1881.08 1854.62 1944.09 1787.2 1944.09 1787.2C1944.09 1787.2 1913.58 1769.47 1916.95 1745.77C1920.33 1722.06 1957.6 1692.37 1957.6 1692.37C1957.6 1692.37 1976.31 1713.33 1978.7 1733.56C1981.1 1753.79 1967.18 1773.28 1967.18 1773.28C1963.36 1785.52 1954.65 1792.01 1963.45 1782.51ZM1950.3 1589.73C1996.35 1571.96 2039.74 1584.07 2099.76 1563.93C2149.5 1547.25 2188.03 1535.1 2239.7 1482.96C2242.35 1480.29 2321.62 1392.55 2321.62 1392.55C2321.62 1392.55 2287.18 1384.63 2276.62 1360.93C2266.06 1337.22 2279.38 1297.74 2279.38 1297.74C2279.38 1297.74 2305.16 1294.98 2322.27 1315.05C2339.37 1335.12 2347.81 1378.01 2347.81 1378.01C2347.81 1378.01 2377.6 1362.6 2396.62 1312.62C2415.63 1262.64 2446.73 1192.2 2423.87 1178.09C2401 1163.98 2271.76 1267.44 2189.71 1293.69C2107.66 1319.93 1976.96 1361.17 1976.96 1361.17C1976.96 1361.17 2036.98 1394.9 2051.81 1437.36C2066.64 1479.82 2036.27 1530.99 2036.27 1530.99C2036.27 1530.99 1984.25 1501.74 1969.12 1460.01C1953.99 1418.28 1975.76 1364.07 1975.76 1364.07C1975.76 1364.07 1950.83 1382.72 1919.11 1406.75C1887.39 1430.79 1874.24 1424.46 1848.87 1460.21C1823.5 1495.97 1819.56 1498.76 1817.63 1549.78C1815.69 1600.81 1811.9 1649.92 1841.13 1664.32C1870.37 1678.72 1906.12 1606.77 1950.3 1589.73ZM1534.68 1095.9C1534.68 1095.9 1523.3 1075.88 1500.15 1051.28C1477 1026.68 1483.48 1020.34 1448.66 990.853C1413.83 961.362 1318.69 873.435 1309.46 882.842C1300.23 892.249 1317.29 931.789 1323.93 970.947C1330.56 1010.11 1323.32 999.658 1335.99 1039.48C1348.65 1079.29 1351.69 1093.62 1374.58 1130.22C1397.46 1166.81 1403.77 1163.64 1427.54 1185.86C1451.31 1208.08 1454.11 1221.4 1469.65 1219.11C1485.19 1216.82 1471.33 1188.32 1489.69 1176.71C1508.05 1165.09 1543.1 1172.64 1543.1 1172.64C1543.1 1172.64 1544.99 1197.85 1528.61 1212.45C1512.24 1227.05 1471.71 1212.25 1477.6 1231.03C1483.49 1249.82 1520.79 1257.91 1552.16 1287.6C1583.53 1317.28 1580.76 1322.88 1603.08 1349.77C1625.41 1376.66 1629.13 1360.07 1641.46 1395.15C1653.79 1430.23 1652.41 1490.09 1652.41 1490.09C1652.41 1490.09 1614.62 1462.59 1598.78 1431.88C1582.95 1401.16 1601.64 1379.25 1589.07 1367.23C1576.49 1355.22 1570.11 1363.55 1548.49 1383.82C1526.86 1404.08 1511.62 1418.78 1502.58 1448.28C1493.53 1477.79 1518.36 1474.42 1512.3 1501.85C1506.24 1529.28 1478.32 1558.01 1478.32 1558.01C1478.32 1558.01 1450.5 1530.72 1451.5 1502.46C1452.51 1474.19 1499.17 1457.78 1482.35 1444.95C1465.53 1432.12 1427.44 1444.17 1384.22 1451.15C1340.99 1458.14 1311.59 1447.7 1309.45 1472.88C1307.3 1498.06 1346.01 1524.88 1375.64 1551.87C1405.26 1578.87 1402.08 1573.4 1427.94 1580.86C1453.8 1588.32 1492.35 1557.19 1541.98 1570.85C1591.62 1584.52 1657.81 1599.12 1696.92 1570.26C1736.04 1541.4 1726.39 1498.44 1723.24 1457.34C1720.09 1416.24 1725.28 1424.37 1698.46 1365.95C1671.64 1307.52 1651.28 1280.14 1615.97 1223.65C1580.65 1167.15 1543.51 1118.44 1543.51 1118.44C1543.51 1118.44 1511.82 1153.41 1478.42 1137.63C1445.01 1121.85 1416.21 1057.57 1416.21 1057.57C1416.21 1057.57 1451.87 1070.54 1479.65 1075.3C1507.42 1080.07 1534.68 1095.9 1534.68 1095.9ZM2011.43 1051.05C2016.45 1024.94 1989.06 1029.77 1985.77 1000.19C1982.48 970.61 1985.04 937.823 1998.28 932.721C1998.28 932.721 2029.71 956.466 2038.74 979.788C2047.77 1003.11 1995.23 1038.31 2034.41 1026.01C2073.58 1013.7 2151.71 956.768 2195.45 930.559C2239.18 904.35 2207.83 927.282 2209.34 921.171C2210.85 915.059 2216.66 919.035 2201.49 906.112C2186.31 893.189 2171.8 880.037 2148.65 869.479C2125.49 858.922 2146.4 859.732 2108.88 863.883C2071.36 868.034 2054.51 863.773 1998.57 886.084C1942.62 908.394 1937.1 911.257 1885.1 953.126C1833.11 994.994 1790.59 1053.56 1790.59 1053.56C1790.59 1053.56 1824.58 1131.73 1821.92 1179.54C1819.27 1227.36 1797.87 1247.4 1797.87 1247.4C1797.87 1247.4 1758.68 1200.42 1758.09 1154.71C1757.5 1109 1777.63 1061.97 1777.63 1061.97C1777.63 1061.97 1699.52 1100.7 1698.09 1171.94C1696.67 1243.19 1734 1325.43 1771.94 1346.94C1809.88 1368.45 1820.01 1306.54 1849.87 1257.99C1879.73 1209.44 1884.48 1197.61 1886.4 1157.72C1888.33 1117.83 1862.56 1134.05 1857.57 1098.43C1852.58 1062.81 1871.43 1010.26 1871.43 1010.26C1871.43 1010.26 1896.4 1046.19 1903.82 1077.39C1911.25 1108.58 1885.66 1128.24 1901.12 1135.05C1916.58 1141.87 1938.09 1125.64 1965.67 1104.63C1993.25 1083.63 2006.4 1077.16 2011.43 1051.05ZM1287.01 1432.42C1291.41 1414.39 1259.93 1366.35 1259.03 1321.65C1258.14 1276.96 1283.43 1253.65 1283.43 1253.65C1283.43 1253.65 1323.35 1329.74 1329.84 1374.4C1336.34 1419.06 1295.85 1419.74 1309.42 1432.27C1323 1444.81 1346.88 1425.78 1384.15 1424.55C1421.41 1423.32 1451.83 1436.05 1458.5 1427.35C1465.17 1418.65 1430.33 1418.74 1410.84 1389.75C1391.36 1360.77 1380.56 1311.42 1380.56 1311.42C1380.56 1311.42 1430.02 1328.88 1454.35 1353.83C1478.68 1378.78 1459.63 1412.92 1477.89 1411.21C1496.15 1409.5 1516.51 1365.39 1527.38 1347C1538.26 1328.61 1532.01 1347.87 1521.39 1337.66C1510.77 1327.44 1504.99 1320.39 1484.91 1306.13C1464.83 1291.87 1462.81 1291.68 1441.06 1280.6C1419.32 1269.53 1428.35 1271.88 1397.92 1261.84C1367.49 1251.8 1362.91 1253.73 1319.34 1240.45C1275.76 1227.17 1272.5 1234.63 1223.63 1208.72C1174.75 1182.82 1154.61 1154.1 1123.84 1136.82C1093.07 1119.54 1106.69 1128.15 1100.56 1139.59C1094.42 1151.04 1093.94 1158.3 1099.3 1182.61C1104.67 1206.91 1106.68 1211.6 1122.03 1236.82C1137.39 1262.04 1138.58 1256.1 1160.73 1283.49C1182.87 1310.88 1190.43 1318.8 1210.61 1346.38C1230.8 1373.96 1222.36 1372.29 1241.46 1393.8C1260.56 1415.31 1282.62 1450.46 1287.01 1432.42ZM663.062 1781.53C670.936 1778.84 661.706 1771.11 680.604 1752.05C699.502 1732.99 698.585 1724.37 738.655 1705.29C778.725 1686.21 798.195 1686.19 840.884 1675.73C883.572 1665.26 878.498 1670.2 909.41 1663.42C940.321 1656.64 932.61 1665.22 964.528 1648.6C996.446 1631.99 1003.07 1489.06 953.482 1489.83C903.897 1490.6 880.458 1539.74 821.436 1541.82C762.414 1543.9 753.373 1503.98 717.394 1498.15C681.415 1492.33 688.148 1492.99 677.521 1518.51C666.894 1544.03 660.319 1604.58 660.319 1604.58C660.319 1604.58 712.102 1579.24 778.952 1569.82C845.801 1560.39 928.535 1605.94 928.535 1605.94C928.535 1605.94 868.661 1646.67 794.355 1659.01C722.96 1670.85 657.687 1613.94 657.687 1613.94C657.687 1613.94 659.137 1640.01 653.655 1676.88C648.174 1713.74 646.755 1736.61 649.106 1762.77C651.458 1788.94 655.187 1784.21 663.062 1781.53ZM2431.82 1594.63C2438.49 1598.53 2419.22 1605.58 2439.16 1586.57C2459.1 1567.55 2476.05 1564.22 2511.57 1518.58C2547.09 1472.93 2528.52 1399.61 2528.52 1399.61C2528.52 1399.61 2501.56 1422.84 2468.69 1436.46C2435.82 1450.07 2397.03 1454.07 2397.03 1454.07C2397.03 1454.07 2421.02 1406.65 2451.71 1389.78C2482.39 1372.91 2519.78 1386.59 2519.78 1386.59C2519.78 1386.59 2532.26 1333.15 2485.23 1322.18C2449.29 1313.8 2407.07 1353.76 2372.27 1390.64C2337.47 1427.52 2299.49 1452.88 2299.43 1481.35C2299.36 1509.82 2337.86 1479.72 2373.37 1510.24C2408.89 1540.75 2425.15 1590.73 2431.82 1594.63ZM1834.31 1422.71C1842.91 1423.63 1838.41 1432.48 1867.94 1415.75C1897.47 1399.02 1912.73 1385.5 1952.41 1355.78C1992.1 1326.07 2019.57 1309.89 2026.68 1296.88C2033.78 1283.87 2007.81 1309.58 1980.83 1303.76C1953.85 1297.94 1918.77 1273.59 1918.77 1273.59C1918.77 1273.59 1950.73 1247.05 1978.6 1245.56C2006.48 1244.07 2030.26 1267.63 2030.26 1267.63C2030.26 1267.63 2092.12 1247.69 2149.12 1192.98C2206.11 1138.27 2239.87 1087.35 2239.45 1013.83C2239.03 940.31 2200.57 958.635 2170.17 975.022C2139.77 991.408 2105.24 1011.77 2071.09 1040.91C2036.93 1070.05 2033.56 1091.57 2033.56 1091.57C2033.56 1091.57 2064.46 1077.48 2100.16 1066.86C2135.86 1056.24 2191.89 1073.47 2191.89 1073.47C2191.89 1073.47 2154.45 1111.7 2111.59 1136.98C2068.74 1162.26 2003.83 1132.27 2003.83 1132.27C2003.83 1132.27 1960.13 1140.42 1927.96 1181.28C1895.78 1222.14 1871.84 1285.65 1849.8 1331.73C1827.75 1377.8 1837.41 1389.3 1833.53 1412.04C1829.66 1434.79 1825.71 1421.78 1834.31 1422.71ZM2586.75 1896.47C2586.75 1896.47 2596.94 1839.17 2637.75 1824.95C2683.89 1808.87 2732.43 1811.73 2732.43 1811.73L2741.6 1790.36C2741.6 1790.36 2710.99 1762.97 2676.86 1760.95C2637.67 1758.62 2620.36 1789.96 2574.91 1778.44C2525.4 1765.89 2441.05 1696.8 2435.26 1696.71C2429.47 1696.63 2399.51 1747.48 2411.11 1776.59C2422.7 1805.71 2473.46 1855.43 2528.05 1875.06C2597.92 1900.18 2587.97 1982.28 2589.35 1982.85C2590.72 1983.42 2616.11 1933.85 2659.71 1916.49C2701.76 1899.74 2746.02 1901.65 2785.12 1907.49C2819.92 1912.7 2824.64 1981.6 2835.11 1919.21C2840.47 1887.3 2844.92 1882 2851.14 1842.05C2856.41 1808.2 2851.25 1780.59 2848.5 1774.59C2839.57 1755.1 2780.72 1790.5 2767.47 1795.46C2747.74 1802.85 2743.38 1833.04 2743.38 1833.04C2743.38 1833.04 2724.35 1868.12 2697.06 1868.97C2669.76 1869.82 2667.29 1863.42 2642.48 1869.31C2617.67 1875.21 2586.75 1896.47 2586.75 1896.47ZM2062.47 1299.95C2062.47 1299.95 2186.81 1272.08 2247.34 1235.19C2266.74 1223.37 2329.05 1198.15 2351.48 1181.54C2399 1146.35 2404.3 1118.48 2404.3 1118.48C2404.3 1118.48 2360.9 1159.89 2332.13 1161.49C2303.37 1163.1 2263.79 1153.87 2263.79 1153.87C2263.79 1153.87 2294 1110 2324.25 1098.48C2354.51 1086.95 2403.79 1089.35 2403.79 1089.35C2403.79 1089.35 2410.64 1074.26 2420.32 1049.92C2430 1025.58 2434.91 1009.48 2442.52 992.007C2450.13 974.531 2449.53 986.895 2450.77 980.017C2452.01 973.138 2458.07 967.407 2439.1 958.749C2420.13 950.09 2395.06 937.125 2371.62 929.859C2348.19 922.594 2345.37 929.688 2345.37 929.688C2345.37 929.688 2366.94 977.455 2367.67 996.575C2368.41 1015.7 2327.85 1073.46 2327.85 1073.46C2327.85 1073.46 2302.21 1027.95 2305.52 991.616C2308.37 960.402 2323.71 932.245 2323.71 932.245C2323.71 932.245 2287.25 924.57 2276.49 946.857C2265.72 969.143 2270.48 980.603 2262.53 1023.73C2241.4 1138.33 2196.84 1173.39 2153.63 1214.92C2110.41 1256.45 2062.47 1299.95 2062.47 1299.95ZM2320.19 1588.8C2341.49 1618.99 2358.95 1668.53 2358.95 1668.53C2358.95 1668.53 2318.58 1670.99 2288 1647.17C2257.41 1623.34 2256.24 1555.4 2256.24 1555.4C2256.24 1555.4 2241.27 1541.95 2219.69 1547.22C2192.91 1553.77 2156.76 1579.81 2135.85 1585.86C2115.49 1591.76 2073.4 1587.11 2055.49 1607.1C2039.6 1624.84 2076.27 1649.06 2113.54 1676.5C2155.07 1707.08 2199.53 1740.42 2217.81 1747.56C2252.5 1761.1 2266.43 1785.83 2318.98 1782.26C2371.78 1778.68 2376.81 1709.06 2391.73 1684.71C2406.65 1660.36 2409.95 1646.33 2404.04 1629.11C2398.13 1611.9 2383.26 1553.87 2358.72 1536.42C2334.19 1518.96 2277.71 1529.86 2273.77 1547.77C2269.82 1565.69 2298.9 1558.61 2320.19 1588.8ZM1632.96 2729.08C1612.07 2756.36 1691.98 2740.12 1691.98 2740.12C1691.98 2740.12 1643.64 2771.16 1616.97 2759.51C1590.3 2747.86 1585.84 2725.53 1566.71 2735.61C1547.58 2745.69 1537.67 2778.83 1540.44 2799.83C1543.22 2820.83 1543.58 2820.34 1577.79 2819.61C1612.01 2818.88 1639.91 2802.9 1677.29 2796.89C1714.68 2790.89 1704.01 2794.46 1727.32 2795.58C1750.64 2796.7 1746.83 2795.79 1770.56 2801.36C1794.29 2806.93 1809.84 2828.47 1829.2 2835.75C1848.56 2843.02 1859.85 2841.02 1873.48 2834.1C1887.11 2827.18 1900.67 2821.46 1902.52 2802.77C1904.38 2784.09 1883.86 2756.63 1851.34 2741.22C1826.7 2729.55 1799.97 2721.63 1778.42 2729.47C1739.3 2743.71 1694.08 2770.2 1694.08 2770.2C1694.08 2770.2 1716.72 2740.57 1740.6 2721.14C1764.48 2701.71 1775.35 2719.38 1801.84 2682.24C1828.34 2645.11 1832.71 2629.19 1836.1 2587.85C1839.49 2546.52 1826.7 2547.33 1815.4 2516.92C1804.1 2486.5 1808.6 2477.67 1790.9 2466.2C1773.2 2454.72 1726.77 2447.57 1700.31 2454.64C1673.86 2461.72 1636.76 2474.29 1680.69 2480.43C1729.75 2487.28 1750.15 2490.09 1764.78 2498.14C1792.96 2513.63 1795.64 2519.13 1807.56 2548.74C1825.52 2593.38 1783.29 2647.52 1740.85 2679.45C1691.24 2716.78 1653.84 2701.79 1632.96 2729.08ZM1429.52 1232.01C1411.15 1202.24 1362.56 1181.12 1325.99 1110.79C1289.42 1040.47 1302.96 1001.37 1283.25 950.71C1263.54 900.049 1255.09 903.314 1247.14 908.15C1239.2 912.985 1258.39 944.135 1251.47 970.051C1244.54 995.968 1232.47 1018.19 1219.43 1011.81C1206.4 1005.43 1196.43 974.846 1199.33 944.53C1202.22 914.215 1236.91 905.723 1231.02 890.551C1225.12 875.379 1182.1 905.796 1149.66 912.519C1117.23 919.241 1107.21 1007.89 1121.77 1053.86C1136.33 1099.83 1137.85 1099 1159.53 1101.33C1181.21 1103.65 1180.45 1072.39 1208.47 1063.14C1236.5 1053.89 1271.62 1064.32 1271.62 1064.32C1271.62 1064.32 1257.17 1100.93 1232.08 1113.94C1206.99 1126.95 1177.53 1106.79 1171.27 1116.34C1165.01 1125.9 1173.12 1129.87 1207.03 1152.15C1240.93 1174.43 1258.79 1186.02 1306.9 1205.45C1355 1224.88 1368.78 1223.22 1399.44 1229.86C1430.09 1236.5 1447.88 1261.77 1429.52 1232.01ZM1898.96 709.357C1852.17 661.55 1790.14 671.689 1790.14 671.689L1775.15 812.764C1775.15 812.764 1820.37 722.534 1860.98 751.636C1905.47 783.52 1880.57 855.56 1844.62 896.799C1815.9 929.752 1775.85 958.677 1775.85 958.677C1775.85 958.677 1729.44 929.779 1702.82 885.703C1673.39 836.98 1638.56 785.388 1681.88 754.42C1720.3 726.96 1772.75 816.128 1772.75 816.128C1772.75 816.128 1740.42 665.749 1737.08 666.387C1687.45 675.881 1677.52 675.625 1643.74 708.754C1609.95 741.882 1618.49 841.89 1654.61 889.662C1690.74 937.434 1720.31 980.688 1775.95 984.331C1831.58 987.974 1863.09 916.081 1892.54 876.851C1922 837.62 1945.74 757.164 1898.96 709.357ZM1658.09 960.505C1658.09 960.505 1666.21 997.486 1651.36 1021.8C1636.52 1046.11 1598.71 1057.75 1598.71 1057.75C1598.71 1057.75 1583.51 1006.68 1595 978.536C1606.48 950.394 1644.64 945.182 1644.64 945.182C1644.64 945.182 1622.65 877.232 1571.21 845.383C1519.77 813.533 1495.97 819.88 1438.86 817.784C1381.76 815.688 1337.4 813.602 1342.68 851.181C1347.96 888.76 1459.98 968.1 1459.98 968.1C1459.98 968.1 1429.31 926.215 1433.54 897.723C1437.78 869.231 1476.92 854.132 1476.92 854.132C1476.92 854.132 1506.7 898.399 1507.79 927.633C1508.89 956.866 1478.57 975.855 1478.57 975.855C1478.57 975.855 1513.1 996.856 1555.39 1044.82C1597.68 1092.78 1607.54 1171.69 1650.47 1162.91C1693.4 1154.13 1725.19 1060.28 1727.1 1009.68C1729 959.078 1658.09 960.505 1658.09 960.505ZM2587.55 1643.31C2614.87 1641.95 2710.78 1595.27 2719.08 1550.17C2722.07 1533.91 2759.3 1491.58 2759.35 1433.87C2759.4 1376.17 2719.32 1334.67 2719.32 1334.67C2719.32 1334.67 2715.93 1396.2 2685.93 1426.13C2655.94 1456.06 2622.71 1489.2 2622.71 1489.2C2622.71 1489.2 2611.93 1446.68 2632.46 1403.44C2653 1360.2 2704.86 1316.23 2704.86 1316.23C2704.86 1316.23 2565.64 1331.57 2571.32 1378.4C2581.53 1462.69 2526.91 1542.42 2515.28 1569.36C2503.64 1596.31 2560.22 1644.67 2587.55 1643.31ZM1619.71 2636.59C1650.52 2663.75 1700.49 2633.91 1719.71 2608.31C1736.78 2585.57 1737.56 2564.38 1731.99 2553.99C1718.9 2529.6 1659.77 2541.29 1647.62 2562.19C1635.38 2583.25 1655.22 2601.35 1672.41 2596.13C1689.6 2590.9 1703.5 2561.87 1703.5 2561.87C1703.5 2561.87 1702.59 2607.09 1673.83 2618.96C1637.74 2633.85 1615.87 2588.22 1615.87 2588.22C1615.87 2588.22 1611.64 2555.52 1630.04 2538.6C1648.43 2521.68 1689.45 2520.52 1689.45 2520.52C1689.45 2520.52 1758.1 2516.3 1766.22 2550.11C1774.4 2584.14 1711.87 2658.22 1671.44 2666.97C1642.83 2673.17 1596.43 2677.02 1579.81 2634.01C1563.19 2591 1570.57 2534.45 1582.53 2489.83C1594.73 2444.33 1655.47 2408.45 1655.47 2408.45C1655.47 2408.45 1754.66 2414.61 1774.88 2392.71C1787.78 2378.73 1797.39 2331.62 1772.39 2350.53C1769.98 2352.36 1754.82 2401.8 1721.89 2385.62C1704.65 2377.15 1695.13 2350.84 1695.13 2350.84C1695.13 2350.84 1726.51 2380.23 1741.84 2363.5C1760.09 2343.6 1730.45 2300.37 1726.02 2302.4C1669.55 2328.25 1581.91 2438.79 1567.93 2462.31C1547.97 2495.87 1546.26 2559.04 1551.58 2616.54C1556.9 2674.05 1580.05 2694.53 1627.67 2693.99C1675.29 2693.45 1786.8 2644.34 1784.35 2562.39C1783.04 2518.25 1669.68 2476.37 1624.51 2510.39C1587.53 2538.24 1585.27 2606.23 1619.71 2636.59ZM896.55 1841.91C895.856 1810.71 897.629 1802.21 887.565 1770.54C877.5 1738.87 896.195 1718.23 856.293 1715.23C816.391 1712.23 766.94 1733.24 727.958 1758.56C688.975 1783.88 692.95 1787.32 700.364 1816.53C707.777 1845.73 721.587 1853.76 757.614 1875.39C793.64 1897.03 811.289 1898.1 844.471 1903.08C877.653 1908.07 877.321 1910.63 890.341 1895.34C903.361 1880.05 897.245 1873.11 896.55 1841.91ZM2457.42 1273.01C2462.69 1277.54 2543.39 1300.61 2571.65 1302.47C2586.13 1303.42 2555.81 1264.56 2566.48 1239.25C2576.64 1215.16 2611.49 1203.93 2611.49 1203.93C2611.49 1203.93 2609.23 1231.1 2611.7 1255.66C2612.88 1267.47 2591.45 1301.12 2598.27 1300.51C2619.27 1298.62 2711.87 1288.24 2690.42 1212.64C2668.98 1137.05 2587.66 1104.52 2587.66 1104.52C2587.66 1104.52 2599.65 1140.22 2585.03 1170.56C2570.41 1200.9 2529.17 1225.87 2529.17 1225.87C2529.17 1225.87 2513.09 1172.86 2535.48 1125.42C2557.88 1077.99 2571.34 1092.06 2571.34 1092.06C2571.34 1092.06 2547.65 1040.8 2526.4 1019.78C2505.15 998.76 2500.23 1007.65 2486.34 1007.99C2472.45 1008.32 2467.23 1018.47 2464.51 1033C2461.79 1047.52 2460.54 1035.25 2459.97 1079.24C2459.4 1123.23 2462 1172.01 2462.22 1208.96C2462.44 1245.91 2452.15 1268.47 2457.42 1273.01ZM1341.02 2506.49C1374.56 2496.57 1378.57 2493.07 1411.91 2478.79C1445.25 2464.51 1445.77 2463.27 1474.37 2449.38C1502.97 2435.48 1503.38 2437.57 1526.31 2423.21C1549.24 2408.85 1542.26 2412.92 1566.1 2391.94C1589.95 2370.96 1596.7 2369.62 1621.7 2339.31C1646.7 2308.99 1658.37 2293.55 1666.12 2270.69C1673.86 2247.83 1677.67 2235.43 1652.7 2247.85C1627.72 2260.27 1614.73 2288.65 1566.21 2320.36C1517.69 2352.06 1498.01 2355.59 1458.62 2374.66C1419.23 2393.73 1340.37 2382.04 1344.21 2392.54C1344.61 2393.62 1371.63 2411.84 1388.72 2417.23C1408.4 2423.43 1431.84 2425.51 1437.94 2425.25C1460.71 2424.28 1479.09 2393.36 1479.09 2393.36C1479.09 2393.36 1477.08 2440.92 1438.51 2446.87C1399.93 2452.82 1347.63 2418 1319.71 2440.49C1291.79 2462.98 1283.37 2480.59 1264.16 2498C1244.95 2515.41 1249.88 2505.68 1242.86 2510.12C1235.85 2514.56 1307.48 2516.42 1341.02 2506.49ZM1332.3 1561.44C1298.47 1529.21 1272.08 1493.02 1272.08 1493.02C1272.08 1493.02 1266.36 1556.23 1239.2 1586.83C1212.04 1617.43 1159.52 1619.71 1159.52 1619.71C1159.52 1619.71 1165.25 1560.19 1190.91 1523.79C1216.56 1487.4 1261.58 1481.84 1261.58 1481.84C1261.58 1481.84 1216.68 1439.8 1199.49 1440.23C1182.31 1440.66 1215.32 1436.83 1193.42 1475.86C1171.52 1514.88 1130.14 1554.37 1111.9 1596.32C1093.66 1638.27 1086.73 1631.77 1120.45 1643.66C1154.16 1655.55 1195.76 1645.76 1246.75 1643.89C1297.74 1642.02 1285.22 1640.58 1324.4 1636.17C1363.59 1631.76 1401.5 1644.93 1403.48 1626.25C1405.45 1607.57 1366.13 1593.68 1332.3 1561.44ZM982.81 1013.27C982.103 1039.65 1020.98 1033.47 1033.1 1069.96C1045.22 1106.45 1031.28 1159.23 1031.28 1159.23C1031.28 1159.23 984.679 1125.52 967.287 1094.3C949.895 1063.09 974.579 1016.25 961.712 1034.38C948.846 1052.51 867.477 1127.06 898.208 1210.15C915.729 1257.52 1011.86 1237.16 1033.75 1217.64C1055.63 1198.13 1078.65 1181.84 1079.46 1121.7C1080.27 1061.56 1088.75 1000.33 1077.86 961.023C1066.98 921.714 1059.69 951.401 1035.93 964.464C1012.17 977.527 983.517 986.901 982.81 1013.27ZM2711.99 2108.92C2740.4 2092.57 2789.59 2062.53 2794.18 2026.55C2797.48 2000.71 2759.48 1963.87 2759.48 1963.87C2759.48 1963.87 2722.12 1984.22 2708.56 2014.33C2694.83 2044.79 2720.06 2069.42 2720.06 2069.42C2720.06 2069.42 2667.18 2106.87 2641.28 2067.94C2620.38 2036.51 2630.44 2030.94 2656.53 2002.27C2686.37 1969.47 2739.3 1950.58 2739.3 1950.58C2739.3 1950.58 2691.63 1940.87 2657.49 1959.92C2623.35 1978.97 2611.5 1996.43 2597.78 2040.28C2584.07 2084.12 2600.51 2115.38 2602.63 2135.31C2604.75 2155.25 2663.17 2137.03 2711.99 2108.92ZM894.429 2052.63C899.749 2005.21 913.626 1967.98 887.923 1941.57C862.22 1915.16 786.705 1934.1 786.705 1934.1C786.705 1934.1 820.479 1960.15 824.122 1993.49C827.766 2026.83 806.192 2080.35 806.192 2080.35C806.192 2080.35 740.789 2042.99 737.681 2002.74C734.573 1962.49 765.881 1931.09 765.881 1931.09C765.881 1931.09 693.107 1853.29 671.098 1861.95C649.089 1870.6 657.302 1912.98 677.844 1965.71C698.385 2018.44 706.065 2031.48 753.265 2072.86C800.465 2114.25 831.353 2136.33 866.644 2131.27C901.935 2126.21 889.109 2100.06 894.429 2052.63ZM1168.34 1436.27C1188.22 1383.38 1169.54 1368.32 1129.66 1361.4C1102.48 1356.69 1077.89 1372.66 1077.89 1372.66C1077.89 1372.66 1081.5 1379.08 1106.66 1407.22C1146.46 1451.74 1120.85 1466.7 1120.85 1466.7C1120.85 1466.7 1060.8 1455.58 1041.16 1430.56C1021.04 1404.94 1057.32 1377.05 1054.58 1374.83C1034.6 1358.67 983.51 1355.91 963.922 1373.08C944.335 1390.25 984.04 1443.1 1005.99 1478.69C1015.45 1494.03 1042.62 1584.95 1064.03 1585.88C1101.65 1587.51 1148.47 1489.16 1168.34 1436.27ZM940.467 2413.33C948.581 2409 916.107 2394.62 901.622 2366.12C887.137 2337.62 898.118 2282.05 898.118 2282.05C898.118 2282.05 926.328 2300.16 947.194 2323.46C968.06 2346.75 952.685 2391.87 965.989 2392.52C979.294 2393.17 1002.09 2365.19 1000.41 2326.05C998.73 2286.91 987.08 2270.61 959.261 2235.97C931.442 2201.33 892.95 2199.16 892.95 2199.16C892.95 2199.16 909.262 2226.37 892.586 2250.26C875.911 2274.15 823.842 2278.09 823.842 2278.09C823.842 2278.09 839.657 2350.86 869.165 2383.43C898.674 2416.01 932.353 2417.66 940.467 2413.33ZM2006.4 2837.43C2022.88 2836.7 2003.45 2838 1998.56 2831.17C1993.66 2824.34 1995.45 2790.81 1992.54 2765.73C1989.62 2740.66 1990.4 2723.29 1975.9 2691.73C1961.4 2660.17 1957.49 2665.26 1934.53 2639.5C1911.58 2613.74 1900.85 2592.05 1884.08 2588.7C1867.3 2585.36 1877.35 2604.75 1867.45 2626.11C1857.55 2647.47 1844.5 2655.09 1844.47 2674.13C1844.45 2693.17 1846.65 2682.25 1867.36 2702.27C1888.06 2722.3 1909.02 2736 1927.28 2754.23C1945.54 2772.47 1938.09 2757.01 1940.4 2775.21C1942.7 2793.4 1938.43 2812.3 1936.49 2827.02C1934.54 2841.74 1915.14 2831.49 1932.62 2834.09C1950.09 2836.69 1989.91 2838.16 2006.4 2837.43ZM2128.16 2727.9C2156.81 2729.86 2150.93 2730.97 2162.29 2720.58C2164.08 2718.95 2156.19 2703.78 2160.78 2683.98C2162.96 2674.57 2180.62 2625.56 2183.04 2620.09C2195.63 2591.6 2235.14 2591.71 2246.24 2602.79C2276.38 2632.88 2242.26 2671.89 2242.26 2671.89C2242.26 2671.89 2240.74 2630.94 2227.63 2633.83C2214.53 2636.73 2204.89 2659.01 2202.6 2675.72C2200.11 2693.84 2200.88 2716.25 2207.3 2715.27C2228.27 2712.07 2269.44 2676.03 2283.09 2655.87C2296.73 2635.72 2295.29 2618.14 2277.51 2600.87C2259.73 2583.6 2220.93 2562.77 2209.66 2567.93C2192.15 2575.95 2164.1 2646.08 2122.02 2664.3C2079.95 2682.53 2060.24 2643.84 2050.68 2642.29C2041.12 2640.73 2021.88 2669.43 2021.18 2682.77C2020.47 2696.12 2022.79 2706.38 2047.7 2712.75C2072.62 2719.13 2099.51 2725.94 2128.16 2727.9ZM1409.84 2560.81C1420.38 2564.92 1442.7 2547.1 1458.03 2566.71C1473.37 2586.32 1477.76 2613.62 1471.18 2639.25C1464.6 2664.89 1412.15 2684.29 1417.65 2695.09C1423.14 2705.9 1417.34 2716.33 1436.67 2725.73C1455.99 2735.12 1477.39 2732.34 1494.96 2732.66C1512.52 2732.98 1499.29 2732.47 1506.91 2727C1514.53 2721.53 1515.8 2726.93 1525.44 2710.79C1535.08 2694.65 1525.97 2654.14 1521.23 2602.24C1516.49 2550.35 1529.17 2514.03 1506.48 2503.22C1483.79 2492.4 1440.03 2535.88 1415.87 2550.28C1391.71 2564.68 1399.3 2556.7 1409.84 2560.81ZM1948.73 2443.58C1973.64 2459.61 1987.82 2461.68 1995.76 2500.48C2003.69 2539.28 1985 2565.3 1980.46 2598.79C1975.93 2632.28 1972.98 2627.15 1977.63 2634.44C1982.28 2641.73 1983.18 2641.59 1999.07 2627.95C2014.96 2614.31 2028.63 2605.73 2041.2 2579.88C2053.76 2554.03 2053.63 2552.93 2049.34 2524.57C2045.04 2496.2 2039.96 2493.93 2024.02 2466.42C2008.09 2438.92 2010.33 2434.33 1985.6 2414.55C1960.87 2394.76 1958.23 2383.8 1926.05 2371.2C1893.86 2358.6 1878.38 2362.66 1856.86 2364.14C1835.33 2365.63 1839.21 2377.15 1839.02 2393.21C1838.82 2409.26 1841.8 2417.59 1856.08 2428.38C1870.36 2439.17 1872.96 2432.57 1896.12 2436.37C1919.29 2440.17 1923.82 2427.55 1948.73 2443.58ZM2515.11 2308.8C2448.66 2317.03 2472.72 2344.54 2464.99 2367.62C2462.95 2373.69 2479.78 2347.96 2499.64 2338.99C2520.36 2329.64 2568.4 2339.86 2568.4 2339.86C2568.4 2339.86 2560.77 2368.15 2538.09 2382.55C2515.42 2396.95 2478.42 2387.65 2478.42 2387.65C2478.42 2387.65 2515.96 2448.52 2546.22 2450.17C2576.48 2451.81 2600.52 2408.09 2599.45 2394.21C2597.2 2365.07 2581.56 2300.56 2515.11 2308.8ZM872.468 1279.65C845.348 1288.16 787.392 1353.32 787.392 1353.32C787.392 1353.32 844.725 1370.67 872.244 1396.49C899.763 1422.3 897.468 1456.59 897.468 1456.59C897.468 1456.59 851.24 1487.23 819.14 1466.86C787.04 1446.49 769.069 1375.11 769.069 1375.11C769.069 1375.11 738.361 1429.56 742.622 1461.13C746.883 1492.71 754.526 1490.9 786.112 1501.41C817.697 1511.92 830.07 1512.95 868.964 1503.18C907.858 1493.41 931.522 1495.13 941.687 1462.33C951.852 1429.53 921.079 1407.73 909.624 1371.97C898.17 1336.21 905.158 1342.36 895.869 1319.28C886.58 1296.2 899.587 1271.15 872.468 1279.65ZM1014.88 1711.97C1046.5 1701.74 1071.45 1689.74 1071.45 1689.74C1071.45 1689.74 1067.88 1654.9 1049.52 1652.89C1031.17 1650.87 1035.6 1667.68 998.04 1681.68C960.481 1695.67 916.757 1679.11 899.286 1708.87C881.814 1738.63 904.072 1776.94 928.156 1800.72C952.24 1824.5 957.324 1812.39 995.621 1803.98C1033.92 1795.57 1061.08 1788.9 1081.34 1767.08C1101.61 1745.26 1076.67 1716.69 1076.67 1716.69C1076.67 1716.69 1051.27 1755.12 1018.34 1758.6C985.418 1762.09 944.976 1730.64 944.976 1730.64C944.976 1730.64 983.261 1722.19 1014.88 1711.97ZM1183.02 2517.99C1200.54 2510.88 1234.32 2486.31 1234.57 2476.02C1234.68 2471.35 1232.72 2453.39 1215.48 2447.52C1184.01 2436.8 1155.6 2454.46 1155.6 2454.46C1155.6 2454.46 1164.1 2428.3 1186.82 2424.12C1209.55 2419.93 1237.33 2419.94 1254.26 2443.63C1272.39 2468.98 1289.75 2431.7 1287.41 2420.43C1285.07 2409.15 1278.13 2393.88 1237.13 2392.6C1196.12 2391.33 1134.6 2392.35 1126.92 2425.46C1119.23 2458.56 1165.51 2525.11 1183.02 2517.99ZM2173.72 2557.19C2174.69 2538.32 2179.93 2459.44 2150.91 2434.22C2124.87 2411.59 2046.2 2389.84 2060.3 2425.88C2074.39 2461.91 2093.37 2483.37 2086.05 2529.29C2078.72 2575.22 2058.25 2608.32 2066.74 2620.5C2075.22 2632.68 2084.23 2638.23 2100.94 2642.04C2108.56 2643.78 2131.7 2630.91 2133.9 2613.85C2134.27 2610.99 2116.7 2595.81 2114.44 2560.59C2111.85 2520.06 2124.49 2459.01 2124.49 2459.01C2124.49 2459.01 2125.22 2480.28 2131.42 2541.4C2140.3 2629.05 2173.1 2569.15 2173.72 2557.19ZM2482.81 2590.74C2496.19 2566.83 2475.62 2533.65 2474.56 2527.06C2472.48 2514.22 2492.03 2530.75 2472.84 2525.16C2453.65 2519.56 2427.64 2518.54 2404.7 2517.57C2381.76 2516.59 2376.68 2541.46 2371.79 2564.48C2366.9 2587.49 2361.92 2607.35 2357.95 2623.88C2355.83 2632.71 2403.69 2652.76 2436.05 2644.03C2464.24 2636.43 2476.89 2601.31 2482.81 2590.74ZM1012.01 1243.52C1002.67 1236.41 924.765 1266.86 932.542 1285.99C940.318 1305.12 943.768 1309.05 964.099 1322.81C984.431 1336.57 1046.42 1336.53 1072.61 1339.37C1098.79 1342.21 1151.04 1329.91 1148.64 1324.61C1105 1228.19 1042.09 1240.58 1030.99 1243.8C1019.89 1247.02 1052.21 1261.45 1050.7 1278.93C1049.19 1296.4 1015.45 1315.02 1015.45 1315.02C1015.45 1315.02 989.904 1286.31 986.672 1268.77C983.439 1251.22 1021.34 1250.62 1012.01 1243.52ZM2200.7 2427.32C2195.05 2427.49 2204.75 2508.33 2219.11 2533.9C2233.48 2559.46 2243.42 2548.54 2263.97 2560.53C2284.53 2572.51 2311.29 2594.34 2316.62 2595.18C2321.96 2596.02 2312.12 2527.92 2305.62 2509.56C2302.14 2499.71 2284.04 2462.08 2257.66 2442.91C2234.87 2426.33 2203.32 2427.25 2200.7 2427.32ZM1326.85 2739.15C1350.4 2757.54 1385.63 2754.64 1395.05 2749.51C1404.47 2744.38 1404.51 2744.03 1406.72 2732.46C1408.93 2720.9 1397.18 2691.76 1392.27 2686.37C1387.36 2680.97 1364.95 2664.54 1355.28 2653.44C1345.61 2642.34 1340.87 2632.26 1335.32 2632.48C1329.77 2632.7 1297.06 2653.86 1300.84 2675.92C1304.63 2697.99 1303.3 2720.75 1326.85 2739.15ZM1172.46 2619.72C1204.36 2607.95 1273.2 2565.76 1286.37 2549.44C1299.53 2533.12 1188.13 2560.52 1147.9 2532.62C1107.67 2504.72 1083.53 2572.45 1093.52 2586.43C1103.51 2600.42 1140.55 2631.49 1172.46 2619.72ZM1971.02 2537.4C1969.72 2514.55 1968.03 2501.59 1959.3 2486.05C1950.56 2470.52 1882.97 2457.24 1873.99 2473.44C1865.01 2489.65 1867.25 2503.69 1883.47 2530.61C1899.69 2557.53 1920.19 2566.97 1938.87 2581.12C1957.56 2595.27 1950.18 2598.13 1958.21 2587.19C1966.25 2576.26 1972.32 2560.25 1971.02 2537.4ZM1243.92 2688.56C1254.15 2687.52 1279.02 2635.42 1299.7 2609.13C1320.37 2582.83 1340.45 2572.55 1345.78 2560.13C1351.12 2547.72 1345.78 2545.88 1321.04 2559.47C1296.31 2573.06 1275.63 2596.87 1246.84 2614.49C1218.06 2632.11 1185.97 2640.48 1189.39 2653.09C1192.8 2665.69 1205.93 2671.51 1219.56 2680.38C1233.2 2689.25 1233.7 2689.61 1243.92 2688.56ZM2123.75 2767.99C2104.75 2764.19 2080.71 2759.47 2059.99 2754.54C2039.27 2749.61 2052.27 2746.99 2040.86 2748.27C2029.46 2749.55 2021.52 2747.01 2014.37 2759.66C2007.22 2772.3 2028.43 2833.5 2049.35 2823.9C2070.26 2814.3 2119.31 2787.45 2129.22 2779.69C2139.13 2771.92 2142.75 2771.79 2123.75 2767.99ZM1826.44 2307.57C1835.82 2299.61 1861.26 2298.9 1859.59 2275.46C1857.91 2252.03 1840.34 2262.53 1823.52 2232.14C1806.7 2201.74 1792.31 2153.88 1792.31 2153.88C1792.31 2153.88 1779.31 2205.02 1782.92 2232.19C1786.53 2259.36 1811.18 2288.47 1822.06 2307.31C1832.94 2326.16 1817.06 2315.53 1826.44 2307.57ZM1438.17 2599.23C1433.51 2596.96 1410.08 2610.88 1410.08 2610.88C1410.08 2610.88 1381.26 2597.75 1376.19 2599.72C1371.75 2601.44 1368.65 2618.8 1377.03 2632.17C1386.11 2646.63 1406.93 2657.1 1406.93 2657.1C1406.93 2657.1 1425.89 2652.25 1434.62 2639.22C1444.3 2624.77 1443.61 2601.87 1438.17 2599.23Z" fill="#000000" fill-rule="nonzero" opacity="1" stroke="none"/>
</g>
</g>
<g id="Color-Palette" visibility="hidden">
<path d="M2368.24 414.619L2785.76 414.619L2785.76 832.142L2368.24 832.142L2368.24 414.619Z" fill="#e1e3e7" fill-rule="nonzero" opacity="1" stroke="#ffffff" stroke-linecap="butt" stroke-linejoin="round" stroke-width="10"/>
<path d="M1854.84 416.81L2272.36 416.81L2272.36 834.332L1854.84 834.332L1854.84 416.81Z" fill="#a995a5" fill-rule="nonzero" opacity="1" stroke="#ffffff" stroke-linecap="butt" stroke-linejoin="round" stroke-width="10"/>
<path d="M1311.99 408.751L1729.51 408.751L1729.51 826.274L1311.99 826.274L1311.99 408.751Z" fill="#8475a0" fill-rule="nonzero" opacity="1" stroke="#ffffff" stroke-linecap="butt" stroke-linejoin="round" stroke-width="10"/>
<path d="M806.169 410.116L1223.69 410.116L1223.69 827.639L806.169 827.639L806.169 410.116Z" fill="#626a9c" fill-rule="nonzero" opacity="1" stroke="#ffffff" stroke-linecap="butt" stroke-linejoin="round" stroke-width="10"/>
<path d="M297.415 408.763L714.937 408.763L714.937 826.286L297.415 826.286L297.415 408.763Z" fill="#3825a9" fill-rule="nonzero" opacity="1" stroke="#ffffff" stroke-linecap="butt" stroke-linejoin="round" stroke-width="10"/>
<path d="M2851.75 420.036L3269.27 420.036L3269.27 837.558L2851.75 837.558L2851.75 420.036Z" fill="#1e0634" fill-rule="nonzero" opacity="1" stroke="#ffffff" stroke-linecap="butt" stroke-linejoin="round" stroke-width="10"/>
</g>
</svg>
